<svg width="105" height="75" viewBox="0 0 105 75" fill="none" xmlns="http://www.w3.org/2000/svg">
<g clip-path="url(#clip0_7010_1556)">
<g clip-path="url(#clip1_7010_1556)">
<g clip-path="url(#clip2_7010_1556)">
<path fill-rule="evenodd" clip-rule="evenodd" d="M77.3329 30.754C77.0229 31.9209 75.1153 37.1736 74.4476 39.2622C73.8237 41.2128 74.0717 34.8061 73.4478 36.7568C73.3489 37.0662 72.0085 37.3847 71.7524 37.5827C71.471 37.8004 71.0204 38.306 70.6654 38.3046C67.6724 38.2894 70.0069 37.5982 67.0134 37.5827C65.4992 37.5746 65.1206 38.164 63.6059 38.1563C62.8487 38.1527 61.9021 38.3081 61.1449 38.3046C60.4828 38.3014 55.5125 37.4139 54.8848 37.2462C55.1844 35.5833 57.4917 39.9281 57.9657 38.3046C58.4545 36.6328 55.4058 38.9733 55.8942 37.3015C56.8809 33.9235 57.8675 30.5455 58.8545 27.1674C64.4122 27.1674 69.9699 27.1664 75.5274 27.166C76.1176 27.166 76.8537 27.2728 77.2951 27.6667C77.9242 28.2286 77.7281 29.1454 77.5315 29.968C77.4688 30.2305 77.402 30.493 77.3329 30.754Z" fill="#C0131B"/>
<path fill-rule="evenodd" clip-rule="evenodd" d="M29.2906 30.7537C29.6008 31.9213 31.5078 37.1736 32.1762 39.2618C32.8 41.2124 32.5519 34.8057 33.1758 36.7565C33.2747 37.0662 34.615 37.3843 34.8712 37.583C35.1522 37.8008 35.6027 38.3063 35.9578 38.3042C38.9507 38.2891 36.6167 37.5982 39.6096 37.583C41.1243 37.5753 41.5029 38.164 43.0175 38.1559C43.7747 38.1527 44.7213 38.3077 45.4785 38.3042C46.1406 38.3011 51.111 37.4136 51.7387 37.2458C51.439 35.5829 49.1314 39.9277 48.6577 38.3042C48.1693 36.6332 51.2177 38.9729 50.7292 37.3012C49.7426 33.9238 48.756 30.5458 47.7693 27.1678C42.2113 27.1671 36.6535 27.166 31.0959 27.166C30.5057 27.166 29.7696 27.2728 29.3285 27.6663C28.6991 28.2279 28.8956 29.145 29.0921 29.9673C29.1549 30.2309 29.2215 30.4926 29.2906 30.7537Z" fill="#C0131B"/>
<path fill-rule="evenodd" clip-rule="evenodd" d="M71.8868 23.8814C71.8868 34.3019 63.4741 42.7498 53.0965 42.7498C42.7194 42.7498 34.3066 34.3019 34.3066 23.8814C34.3066 13.4609 42.7194 5.01367 53.0965 5.01367C63.4741 5.01367 71.8868 13.4609 71.8868 23.8814Z" fill="#FCD842"/>
<path fill-rule="evenodd" clip-rule="evenodd" d="M66.7182 10.909C63.3819 7.86146 58.9525 6.00545 54.0931 6.00545C43.7113 6.00545 35.294 14.4576 35.294 24.8827C35.294 29.7619 37.1424 34.2093 40.1767 37.5601C36.561 34.1395 34.3057 29.2715 34.3057 23.8786C34.3057 13.4647 42.7225 5.01367 53.0927 5.01367C58.4638 5.01331 63.312 7.278 66.7182 10.909Z" fill="#FDE869"/>
<path fill-rule="evenodd" clip-rule="evenodd" d="M67.2943 23.8816C67.2943 31.7552 60.9377 38.1385 53.0962 38.1385C45.2551 38.1385 38.8984 31.7552 38.8984 23.8816C38.8984 16.0079 45.2551 9.625 53.0962 9.625C60.9377 9.62532 67.2943 16.0079 67.2943 23.8816Z" fill="#F7B500"/>
<path fill-rule="evenodd" clip-rule="evenodd" d="M63.6032 14.2939C61.0802 12.0408 57.7673 10.652 54.1162 10.652C46.2694 10.652 39.9216 17.0258 39.9216 24.9054C39.9216 28.5716 41.305 31.8986 43.5488 34.4317C40.6889 31.8284 38.8984 28.0692 38.8984 23.8788C38.8984 16.0104 45.2579 9.625 53.0934 9.625C57.2673 9.62464 61.0107 11.4218 63.6032 14.2939Z" fill="#E28900"/>
<path fill-rule="evenodd" clip-rule="evenodd" d="M54.573 17.5283C55.1323 17.6654 55.6379 17.8616 56.0908 18.1171C56.5442 18.3732 56.9319 18.6596 57.2546 18.9774C57.5775 19.2949 57.8322 19.6289 58.0185 19.9773C58.2051 20.3265 58.3034 20.6633 58.3153 20.9877C58.3153 21.0998 58.276 21.196 58.1943 21.277C58.1139 21.3584 58.0245 21.3989 57.9244 21.3989H55.4852C55.3126 21.3989 55.1716 21.3742 55.0667 21.3242C54.9604 21.2749 54.853 21.1992 54.7407 21.0998C54.7031 21.0624 54.6442 21.0001 54.5639 20.9127C54.4835 20.826 54.3688 20.7351 54.22 20.6414C54.0713 20.5477 53.8846 20.4674 53.6608 20.398C53.4376 20.33 53.1653 20.2955 52.8425 20.2955C52.6057 20.2955 52.3787 20.3113 52.1619 20.3423C51.945 20.3737 51.7527 20.4233 51.5847 20.4917C51.418 20.5608 51.2801 20.6573 51.1756 20.7817C51.0693 20.9064 51.0163 21.0624 51.0163 21.2492C51.0163 21.4359 51.0756 21.592 51.1934 21.717C51.3114 21.8418 51.5103 21.9573 51.7889 22.063C52.0689 22.1687 52.4376 22.2713 52.8966 22.371C53.3559 22.4703 53.9274 22.5891 54.6102 22.7264C55.2923 22.8642 55.8894 23.0382 56.3982 23.25C56.9059 23.4617 57.3315 23.7267 57.6729 24.0448C58.015 24.3622 58.2701 24.7364 58.4364 25.1662C58.6048 25.5964 58.688 26.1041 58.688 26.69C58.688 27.2136 58.5876 27.6934 58.3897 28.13C58.1915 28.5665 57.9125 28.9526 57.5519 29.2891C57.1926 29.6262 56.7578 29.9063 56.2484 30.1304C55.7393 30.3549 55.1818 30.5166 54.5727 30.6166V31.9438C54.5727 32.0809 54.5239 32.1992 54.4242 32.299C54.3235 32.3987 54.2074 32.4487 54.0709 32.4487H51.6313C51.4948 32.4487 51.377 32.3987 51.277 32.299C51.1784 32.1992 51.1286 32.0809 51.1286 31.9438V30.5603C50.5324 30.4232 49.9949 30.2269 49.5174 29.9715C49.0402 29.7168 48.63 29.4268 48.2887 29.1017C47.9479 28.7789 47.6841 28.4266 47.4974 28.0461C47.3108 27.6656 47.2111 27.2826 47.1992 26.8965C47.1992 26.7841 47.2399 26.6872 47.3206 26.6069C47.4006 26.5255 47.4915 26.4853 47.5901 26.4853H50.0296C50.2037 26.4853 50.3402 26.5068 50.4387 26.5502C50.5391 26.5939 50.6373 26.6594 50.7373 26.7467C50.7872 26.7972 50.8615 26.8778 50.9602 26.9895C51.0601 27.1019 51.1934 27.2171 51.3615 27.3355C51.5285 27.4546 51.7391 27.5567 51.9934 27.6448C52.2478 27.7315 52.5615 27.7752 52.9345 27.7752C53.5923 27.7752 54.1418 27.7044 54.5832 27.5603C55.0225 27.4172 55.2439 27.1586 55.2439 26.7845C55.2439 26.5974 55.1621 26.4416 55.0014 26.3169C54.8393 26.1926 54.5986 26.0767 54.2758 25.971C53.953 25.8652 53.5393 25.7624 53.0376 25.6623C52.5345 25.563 51.9418 25.4382 51.2587 25.2885C49.9795 25.014 49.0462 24.556 48.4567 23.9145C47.8676 23.2718 47.5718 22.4157 47.5718 21.3432C47.5718 20.9071 47.6525 20.4861 47.8146 20.0816C47.9753 19.6757 48.2086 19.3058 48.5132 18.9683C48.816 18.6321 49.189 18.3394 49.63 18.0896C50.0707 17.8408 50.5689 17.6474 51.1286 17.5104V16.1268C51.1286 15.9901 51.1784 15.8714 51.277 15.7713C51.377 15.6713 51.4948 15.6216 51.6313 15.6216H54.0709C54.2074 15.6216 54.3239 15.6713 54.4242 15.7713C54.5239 15.871 54.5727 15.9898 54.5727 16.1268L54.573 17.5283Z" fill="#E28900"/>
<path fill-rule="evenodd" clip-rule="evenodd" d="M54.1153 17.0687C54.6745 17.2058 55.1809 17.402 55.6338 17.6581C56.0864 17.9136 56.4745 18.2 56.7973 18.5182C57.1201 18.8356 57.3744 19.1696 57.5611 19.518C57.7471 19.8672 57.8457 20.204 57.8579 20.5285C57.8579 20.6405 57.8187 20.7371 57.7365 20.8177C57.6565 20.8991 57.5671 20.9393 57.4671 20.9393H55.0272C54.8545 20.9393 54.7138 20.915 54.6093 20.8649C54.5033 20.8156 54.3956 20.7399 54.2833 20.6405C54.2454 20.6032 54.1861 20.5408 54.1061 20.4534C54.0258 20.366 53.9104 20.2759 53.7619 20.1828C53.6139 20.0888 53.4272 20.0084 53.203 19.9391C52.9802 19.8718 52.7076 19.8365 52.3848 19.8365C52.1483 19.8365 51.921 19.8524 51.7045 19.8837C51.4876 19.9147 51.2953 19.9641 51.1273 20.0324C50.9603 20.1015 50.8227 20.1987 50.7178 20.3224C50.6119 20.4471 50.5589 20.6032 50.5589 20.7903C50.5589 20.977 50.6182 21.1323 50.7361 21.2571C50.854 21.3821 51.0529 21.4977 51.3315 21.6034C51.6122 21.7091 51.9803 21.8116 52.4392 21.9113C52.8985 22.011 53.4697 22.1294 54.1532 22.2668C54.8352 22.4046 55.4321 22.5793 55.9412 22.7904C56.4489 23.0021 56.8748 23.2671 57.2151 23.5852C57.5583 23.9026 57.8127 24.2764 57.9793 24.7066C58.1481 25.1368 58.2309 25.6448 58.2309 26.2304C58.2309 26.7539 58.1313 27.2335 57.9323 27.6703C57.7338 28.1062 57.4552 28.493 57.0945 28.8294C56.7352 29.1659 56.3004 29.4467 55.791 29.6708C55.2815 29.8952 54.7244 30.0569 54.1149 30.157V31.4842C54.1149 31.6212 54.0669 31.7403 53.9665 31.8397C53.8669 31.9394 53.75 31.9901 53.6139 31.9901H51.174C51.0378 31.9901 50.9196 31.9394 50.8192 31.8397C50.721 31.7403 50.6708 31.6216 50.6708 31.4842V30.1006C50.0757 29.9636 49.5375 29.7673 49.0604 29.5119C48.5828 29.2572 48.1723 28.9672 47.8316 28.6427C47.4905 28.3193 47.2271 27.967 47.0404 27.5865C46.8541 27.206 46.7544 26.823 46.7422 26.4369C46.7422 26.3244 46.7825 26.2276 46.8632 26.1466C46.9436 26.0655 47.0345 26.0253 47.1327 26.0253H49.5726C49.747 26.0253 49.8828 26.0472 49.9817 26.0912C50.0814 26.1342 50.1799 26.1994 50.28 26.2871C50.3298 26.3372 50.4041 26.4182 50.5024 26.5299C50.6027 26.6419 50.7357 26.7582 50.9041 26.8759C51.0708 26.9949 51.2813 27.0971 51.5361 27.1852C51.7904 27.2718 52.1044 27.3162 52.4771 27.3162C53.1349 27.3162 53.6844 27.244 54.1258 27.1006C54.5651 26.9576 54.7865 26.699 54.7865 26.3248C54.7865 26.1378 54.7044 25.9827 54.5437 25.8573C54.3816 25.7326 54.1405 25.617 53.8181 25.5113C53.4949 25.4049 53.0816 25.3028 52.5802 25.2034C52.0767 25.1037 51.4845 24.979 50.8013 24.8292C49.5221 24.5555 48.5891 24.0967 47.9993 23.4552C47.4099 22.8129 47.1141 21.9564 47.1141 20.8836C47.1141 20.4478 47.1948 20.0271 47.3569 19.6223C47.5172 19.2172 47.7509 18.8465 48.0555 18.509C48.3583 18.1729 48.7312 17.8801 49.1719 17.6307C49.613 17.3819 50.1112 17.1885 50.6705 17.0511V15.6668C50.6705 15.5301 50.7206 15.4114 50.8189 15.3113C50.9192 15.212 51.0371 15.1616 51.1736 15.1616H53.6135C53.7497 15.1616 53.8665 15.212 53.9662 15.3113C54.0665 15.411 54.1146 15.5298 54.1146 15.6668V17.0687H54.1153Z" fill="#FCD842"/>
<path fill-rule="evenodd" clip-rule="evenodd" d="M75.5308 27.1662C76.2037 27.1588 77.4078 27.3572 77.5746 28.182C77.6442 28.5268 77.2614 29.4285 76.2886 29.4285C76.2222 29.4285 30.1934 29.4232 30.1934 29.4232L27.2661 39.3265C27.2661 39.3265 26.9875 41.558 28.8239 41.558C38.5815 41.558 70.0946 41.5588 70.0946 41.56H72.1462C73.423 41.56 74.5422 40.7093 74.8879 39.4759C75.772 36.3212 77.3185 30.7127 77.5445 30.0076C78.0623 28.3916 78.0418 27.1602 75.5308 27.1662Z" fill="#E4081C"/>
<path fill-rule="evenodd" clip-rule="evenodd" d="M29.0001 28.1406C29.0001 28.1406 28.5412 29.3854 32.2582 29.4227C30.606 35.5192 28.8994 41.5571 28.8994 41.5571H27.803C26.5055 41.5571 25.5672 40.3115 25.9209 39.0576L29.0001 28.1406Z" fill="#E4081C"/>
<path fill-rule="evenodd" clip-rule="evenodd" d="M32.9826 36.9404C33.8481 36.9404 34.546 36.7044 35.1165 36.0043L34.1836 35.108C33.8619 35.4987 33.5061 35.6537 33.1373 35.6537C32.5534 35.6537 32.171 35.2831 32.171 34.7307C32.171 33.8886 32.6945 33.2957 33.4394 33.2957C33.8688 33.2957 34.1776 33.4983 34.3786 33.8481L35.5193 32.9525C35.1772 32.3458 34.439 32.009 33.5398 32.009C31.8019 32.009 30.5742 33.1745 30.5742 34.8321C30.5739 36.0846 31.5265 36.9404 32.9826 36.9404ZM38.8129 36.8326L38.6589 36.0106H36.8673L36.3975 36.8326H34.7271L37.7193 32.1161H39.276L40.39 36.8326H38.8129ZM37.5182 34.8656H38.4375L38.209 33.6589L37.5182 34.8656ZM42.51 36.9404C43.9731 36.9404 44.8857 36.233 44.8857 35.182C44.8857 33.7269 42.6444 34.057 42.6444 33.5381C42.6444 33.3763 42.8724 33.221 43.3356 33.221C43.7917 33.221 44.2478 33.3355 44.6239 33.5716L45.1945 32.4124C44.758 32.1496 44.1341 32.0083 43.4363 32.0083C41.9539 32.0083 41.0609 32.7091 41.0609 33.7804C41.0609 35.2422 43.2952 34.9526 43.2952 35.4512C43.2952 35.6199 43.0805 35.7277 42.6714 35.7277C42.1482 35.7277 41.6111 35.5931 41.0879 35.2898L40.477 36.462C40.9269 36.7385 41.6714 36.9404 42.51 36.9404ZM49.0389 32.1161H50.6223L49.6831 36.8326H48.0996L48.4484 35.0942H46.9856L46.6369 36.8326H45.0531L45.9927 32.1161H47.5761L47.2407 33.7872H48.7034L49.0389 32.1161ZM56.7348 34.4072C57.2512 34.1849 57.5733 33.7875 57.5733 33.2411C57.5733 32.5273 57.0028 32.1161 55.8892 32.1161H53.3998L52.4605 36.8326H55.1713C56.372 36.8326 57.3653 36.3742 57.3653 35.3303C57.3653 34.8991 57.1376 34.582 56.7348 34.4072ZM55.5067 33.228C55.7685 33.228 55.9229 33.3221 55.9229 33.5176C55.9229 33.7734 55.7618 33.9288 55.3997 33.9288H54.5945L54.7352 33.228H55.5067ZM55.2587 35.7207H54.2387L54.3864 34.9794H55.406C55.6141 34.9794 55.7951 35.0805 55.7951 35.2894C55.7951 35.5794 55.5674 35.7207 55.2587 35.7207ZM61.2234 36.8326L61.069 36.0106H59.2778L58.808 36.8326H57.1372L60.1297 32.1161H61.6865L62.8005 36.8326H61.2234ZM59.9283 34.8656H60.8476L60.6195 33.6589L59.9283 34.8656ZM65.6583 36.9404C66.5244 36.9404 67.2219 36.7044 67.7924 36.0043L66.8597 35.108C66.5377 35.4987 66.1823 35.6537 65.8131 35.6537C65.2292 35.6537 64.8468 35.2831 64.8468 34.7307C64.8468 33.8886 65.3703 33.2957 66.1148 33.2957C66.5437 33.2957 66.8529 33.4983 67.0539 33.8481L68.1944 32.9525C67.8523 32.3458 67.1142 32.009 66.2153 32.009C64.4773 32.009 63.2493 33.1745 63.2493 34.8321C63.25 36.0846 64.2026 36.9404 65.6583 36.9404ZM73.7439 32.1161L71.3889 34.2656L72.9189 36.8326H71.1545L70.2013 35.2965L69.7587 35.7076L69.5372 36.8326H67.9805L68.9201 32.1161H70.4767L70.141 33.7872L71.926 32.1161H73.7439Z" fill="white"/>
<path fill-rule="evenodd" clip-rule="evenodd" d="M75.6214 26.2812H69.0424C68.5994 26.2812 68.2834 25.7531 68.4165 25.2341C68.5029 24.8987 68.7562 24.6704 69.0424 24.6704H75.6214C76.0653 24.6704 76.3809 25.1989 76.2474 25.7175C76.1618 26.0532 75.9081 26.2812 75.6214 26.2812Z" fill="#E4081C"/>
<path fill-rule="evenodd" clip-rule="evenodd" d="M79.222 25.5073C79.222 25.9583 78.8578 26.3237 78.4096 26.3237C77.9605 26.3237 77.5967 25.9583 77.5967 25.5073C77.5967 25.0568 77.9605 24.6914 78.4096 24.6914C78.8578 24.6917 79.222 25.0571 79.222 25.5073Z" fill="#E4081C"/>
<path fill-rule="evenodd" clip-rule="evenodd" d="M73.3249 10.2942L73.3607 10.2868C72.1108 10.0194 71.1496 9.01143 70.9385 7.74556L70.8417 7.16846L70.752 7.70576C70.5397 8.97268 69.5777 9.9803 68.3262 10.2474L68.29 10.2551C69.5407 10.5222 70.5011 11.5294 70.713 12.7953L70.8099 13.3731L70.8995 12.8355C71.1114 11.5689 72.073 10.5613 73.3249 10.2942Z" fill="#F7B500"/>
<path fill-rule="evenodd" clip-rule="evenodd" d="M46.3186 3.06618L46.3432 3.0609C45.493 2.87875 44.8394 2.19349 44.6955 1.33242L44.6299 0.939941L44.5685 1.3053C44.4243 2.16672 43.7703 2.85233 42.9191 3.03377L42.8945 3.03906C43.745 3.22085 44.3983 3.90647 44.5422 4.76683L44.6078 5.16002L44.6688 4.7943C44.8134 3.93254 45.4674 3.24727 46.3186 3.06618Z" fill="#F7B500"/>
</g>
</g>
</g>
<path d="M1.52234 59.5239H8.64834V60.7839H2.95034V63.9059H7.69634V65.1239H2.95034V69.9399H1.52234V59.5239ZM15.1033 59.5239C16.9653 59.5239 18.2253 60.6719 18.2253 62.3939C18.2253 63.6679 17.7073 64.5639 16.3213 64.9979V65.0399C17.4973 65.3899 17.8333 66.0899 17.9313 67.5879C18.0573 69.2259 18.1973 69.7299 18.4073 69.8699V69.9399H16.8813C16.6433 69.7439 16.6153 69.2679 16.5033 67.6019C16.4053 66.1319 15.7893 65.5999 14.4313 65.5999H11.6593V69.9399H10.2313V59.5239H15.1033ZM14.6413 64.4519C16.0553 64.4519 16.7553 63.7379 16.7553 62.6039C16.7553 61.3859 16.1813 60.7559 14.7113 60.7559H11.6593V64.4519H14.6413ZM20.0341 59.5239H27.4401V60.7839H21.4621V63.9339H26.8661V65.1239H21.4621V68.6379H27.5941V69.9399H20.0341V59.5239ZM29.3583 59.5239H36.7643V60.7839H30.7863V63.9339H36.1903V65.1239H30.7863V68.6379H36.9183V69.9399H29.3583V59.5239ZM41.7572 59.5239H50.0452V60.7839H46.6152V69.9399H45.1732V60.7839H41.7572V59.5239ZM55.6365 70.1639C52.4865 70.1639 50.5405 67.8399 50.5405 64.7319C50.5405 61.6099 52.4865 59.2999 55.6365 59.2999C58.7725 59.2999 60.7465 61.6099 60.7465 64.7319C60.7465 67.8399 58.7725 70.1639 55.6365 70.1639ZM55.6365 68.9039C58.0025 68.9039 59.2625 67.1119 59.2625 64.7319C59.2625 62.3379 58.0025 60.5319 55.6365 60.5319C53.2705 60.5319 51.9965 62.3379 51.9965 64.7319C51.9965 67.1119 53.2705 68.9039 55.6365 68.9039ZM66.2176 59.5239H73.6236V60.7839H67.6456V63.9339H73.0496V65.1239H67.6456V68.6379H73.7776V69.9399H66.2176V59.5239ZM78.6746 59.5239H80.2706L84.1066 69.9399H82.5386L81.5026 66.9019H77.4006L76.3366 69.9399H74.8666L78.6746 59.5239ZM77.7926 65.7819H81.1246L80.1306 62.8699C79.7806 61.8619 79.5006 60.6579 79.5006 60.6579H79.4586C79.4586 60.6579 79.1506 61.9039 78.8146 62.8699L77.7926 65.7819ZM90.326 59.5239C92.188 59.5239 93.448 60.6719 93.448 62.3939C93.448 63.6679 92.93 64.5639 91.544 64.9979V65.0399C92.72 65.3899 93.056 66.0899 93.154 67.5879C93.28 69.2259 93.42 69.7299 93.63 69.8699V69.9399H92.104C91.866 69.7439 91.838 69.2679 91.726 67.6019C91.628 66.1319 91.012 65.5999 89.654 65.5999H86.882V69.9399H85.454V59.5239H90.326ZM89.864 64.4519C91.278 64.4519 91.978 63.7379 91.978 62.6039C91.978 61.3859 91.404 60.7559 89.934 60.7559H86.882V64.4519H89.864ZM95.2567 59.5239H96.7547L101.025 66.0479C101.529 66.8179 102.187 68.1199 102.187 68.1199H102.229C102.229 68.1199 102.131 66.7619 102.131 65.8939V59.5239H103.475V69.9399H101.991L97.7347 63.4159C97.2307 62.6319 96.5447 61.3579 96.5447 61.3579H96.5167C96.5167 61.3579 96.6007 62.7159 96.6007 63.5559V69.9399H95.2567V59.5239Z" fill="white"/>
<defs>
<clipPath id="clip0_7010_1556">
<rect width="53.44" height="42" fill="white" transform="translate(25.7803 0.939941)"/>
</clipPath>
<clipPath id="clip1_7010_1556">
<rect width="53.44" height="41.81" fill="white" transform="translate(25.7803 0.939941)"/>
</clipPath>
<clipPath id="clip2_7010_1556">
<rect width="53.4686" height="41.81" fill="white" transform="translate(25.7656 0.939941)"/>
</clipPath>
</defs>
</svg>
