<svg width="93" height="75" viewBox="0 0 93 75" fill="none" xmlns="http://www.w3.org/2000/svg">
<g clip-path="url(#clip0_7010_1606)">
<g clip-path="url(#clip1_7010_1606)">
<g clip-path="url(#clip2_7010_1606)">
<path fill-rule="evenodd" clip-rule="evenodd" d="M37.6271 36.3555C34.0352 35.3132 30.8538 34.983 27.8686 35.5084C29.0902 35.5277 30.2234 35.6754 31.2835 35.8928C32.7737 36.1987 34.1151 36.6422 35.3156 37.0392C35.4085 37.0698 35.5006 37.1004 35.5917 37.1304C36.8831 37.5561 37.9795 37.8988 39.0093 38.0028L39.0521 40.0294L38.9347 39.019C37.921 38.9165 36.867 38.6047 35.7303 38.2347C35.5184 38.1657 35.3036 38.0947 35.0856 38.0226C32.0201 37.0093 28.3304 35.7897 23.2482 37.0901C22.0348 37.4007 20.742 37.8547 19.3594 38.4896C20.5604 37.5275 21.7617 36.7399 22.9768 36.1161C27.5018 33.7923 32.2192 33.7357 37.8357 35.3655C43.3958 36.9791 48.694 37.5989 53.0105 36.2468C54.0001 35.9368 54.9382 35.5231 55.816 34.9939C55.1477 35.7564 54.3192 36.4984 53.361 37.1919C48.3817 40.7952 39.8991 43.0864 32.1816 40.1212C31.0842 39.6996 30.0022 39.1716 28.948 38.5261C30.1117 38.8203 31.2679 39.0053 32.3586 39.1157C33.5478 39.2362 34.6592 39.268 35.6175 39.2563C37.6053 39.2316 38.9347 39.019 38.9347 39.019C39.0521 40.0294 39.0523 40.0294 39.0521 40.0294L39.05 40.0296L39.0461 40.0303L39.0329 40.0324C39.0219 40.034 39.006 40.0365 38.9858 40.0395C38.945 40.0453 38.886 40.0537 38.8103 40.0637C38.6584 40.0837 38.4384 40.1104 38.1598 40.1381C37.7683 40.1771 37.2603 40.2181 36.6616 40.2458C39.2248 40.6181 41.7931 40.4927 44.2083 40.01C46.4886 39.5542 48.6059 38.7857 50.431 37.8393C46.517 38.3492 42.1063 37.6554 37.6271 36.3555Z" fill="#F5B923"/>
<path d="M37.6271 36.3555L37.8204 35.4386M37.6271 36.3555C34.0352 35.3132 30.8538 34.983 27.8686 35.5084C29.0902 35.5277 30.2234 35.6754 31.2835 35.8928C32.7737 36.1987 34.1151 36.6422 35.3156 37.0392C35.4085 37.0698 35.5006 37.1004 35.5917 37.1304C36.8831 37.5561 37.9795 37.8988 39.0093 38.0028L39.0521 40.0294M37.6271 36.3555C42.1063 37.6554 46.517 38.3492 50.431 37.8393C48.6059 38.7857 46.4886 39.5542 44.2083 40.01C41.7931 40.4927 39.2248 40.6181 36.6616 40.2458C37.2603 40.2181 37.7683 40.1771 38.1598 40.1381C38.4384 40.1104 38.6584 40.0837 38.8103 40.0637C38.886 40.0537 38.945 40.0453 38.9858 40.0395C39.006 40.0365 39.0219 40.0341 39.0329 40.0324L39.0461 40.0302L39.05 40.0296L39.0521 40.0294M39.0521 40.0294L38.9347 39.019M39.0521 40.0294C39.0523 40.0294 39.0521 40.0294 38.9347 39.019M38.9347 39.019C37.921 38.9165 36.867 38.6047 35.7303 38.2347C35.5184 38.1657 35.3036 38.0947 35.0856 38.0226C32.0201 37.0093 28.3304 35.7897 23.2482 37.0901C22.0348 37.4007 20.742 37.8547 19.3594 38.4896C20.5604 37.5275 21.7617 36.7399 22.9768 36.1161C27.5018 33.7923 32.2192 33.7357 37.8357 35.3655C43.3958 36.9791 48.694 37.5989 53.0105 36.2468C54.0001 35.9368 54.9382 35.5231 55.816 34.9939C55.1477 35.7564 54.3192 36.4984 53.361 37.1919C48.3817 40.7952 39.8991 43.0864 32.1816 40.1212C31.0842 39.6996 30.0022 39.1716 28.948 38.5261C30.1117 38.8203 31.2679 39.0053 32.3586 39.1157C33.5478 39.2362 34.6592 39.268 35.6175 39.2563C37.6053 39.2316 38.9347 39.019 38.9347 39.019Z" stroke="#F5B923" stroke-width="1.26697"/>
<path fill-rule="evenodd" clip-rule="evenodd" d="M69.1695 13.6119C68.9644 13.0844 68.8495 12.3966 68.7851 11.915C68.7519 11.6658 68.7288 11.443 68.7136 11.28L67.0685 8.67498L65.8236 6.71432L66.6832 6.17145C66.9892 5.97826 67.2113 5.8067 67.3991 5.52955C67.2645 5.58148 67.1338 5.62906 67.0082 5.67481C66.9683 5.68933 66.9289 5.70367 66.89 5.7179C66.1306 5.99624 65.5232 6.2469 64.9376 6.91829L64.6547 7.24257L64.2564 7.20484C54.3903 6.27037 49.5059 12.9568 48.1119 14.8651C48.0627 14.9322 48.018 14.9937 47.9774 15.0484C47.1003 16.2366 46.3332 17.5089 45.5749 18.8183C45.4096 19.1036 45.2441 19.3919 45.0779 19.6816C44.4895 20.7068 43.8912 21.7493 43.2551 22.7441C41.6076 25.3206 39.6303 27.7045 36.5539 29.1607L36.5509 29.1619L36.5479 29.1635C34.914 29.92 33.2345 30.5382 31.5223 31.0132L31.5191 31.0141L31.5162 31.0149C31.1692 31.1081 30.8417 31.2113 30.533 31.3216C31.3918 31.2907 32.2587 31.3248 33.1268 31.4037C35.4713 31.6172 37.8909 32.1681 40.2344 32.7016C40.5963 32.7841 40.9565 32.866 41.3143 32.9464C44.021 33.5536 46.5992 34.0647 48.9761 34.0124C51.3083 33.9612 53.3873 33.3676 55.1607 31.8328C57.8874 28.3917 61.7018 27.1322 64.2037 27.5028L64.9096 27.6075L64.955 28.4233C64.9841 28.949 64.8603 29.5076 64.6933 30.0038C64.5204 30.518 64.2721 31.05 63.9804 31.5485C63.5265 32.3247 62.9039 33.1265 62.1989 33.6357C62.133 34.0009 61.972 34.318 61.7352 34.5616C61.3935 34.9128 60.9724 35.0328 60.6696 35.0447C60.469 35.0526 60.2318 34.9973 60.0854 34.961C59.9046 34.9163 59.7044 34.8572 59.524 34.8008C59.4805 34.7874 59.4378 34.7737 59.3961 34.7604C58.7042 35.8115 58.3401 36.9462 58.1501 37.8756C58.1359 37.9447 58.1228 38.0125 58.1105 38.079C58.8374 37.6599 59.4469 37.2156 59.9194 36.8298C60.2869 36.5296 60.5691 36.267 60.7566 36.0824C60.8504 35.9901 60.9202 35.9177 60.965 35.87C60.9875 35.8462 61.0035 35.8286 61.0133 35.818C61.0181 35.8126 61.0214 35.809 61.0231 35.8072L61.0239 35.8062L61.8995 34.8106L62.3666 35.9757C62.3804 35.9719 62.3953 35.9676 62.4117 35.9624C62.4874 35.9382 62.5717 35.9026 62.6557 35.8612C62.6716 35.8533 62.6872 35.8455 62.7024 35.8376C64.1397 32.1306 65.777 29.682 66.7823 28.3888C66.8069 28.3572 66.8668 28.2122 66.8457 27.8767C66.8378 27.7517 66.8206 27.6343 66.8032 27.5413L65.934 26.3584C64.1798 25.4042 61.6659 25.0597 59.0538 25.1314C56.387 25.2046 53.7477 25.707 51.9621 26.3062L51.2652 24.5113L51.7198 25.3544C53.1752 24.866 55.1498 24.4455 57.2483 24.249C57.5122 24.2243 57.7778 24.2031 58.0449 24.1859C61.0916 23.9883 64.2912 24.2925 66.4769 25.5594L67.5893 27.0733C67.5893 27.0733 67.9577 28.3664 67.4266 29.049C66.4433 30.3141 64.7937 32.7808 63.3694 36.5599C63.3694 36.5599 62.738 36.9857 62.2781 36.9826C62.1532 36.9818 62.0484 36.9466 61.962 36.8959C61.7302 36.7598 61.6307 36.5119 61.6307 36.5119C61.6307 36.5119 61.3997 36.7744 60.9673 37.1669C60.3489 37.728 59.3189 38.5546 57.9638 39.2577C57.6851 39.4022 57.3928 39.5415 57.0875 39.6722C57.0875 39.6722 57.0777 39.2456 57.1585 38.5759C57.3054 37.3606 57.7503 35.3447 59.0926 33.6251C59.0926 33.6251 60.3309 34.0657 60.6401 34.0536C60.9493 34.0415 61.4782 33.7916 61.349 33.0306C62.4289 32.519 63.5486 30.8006 63.9454 29.4645C63.9699 29.3821 63.9916 29.3013 64.0104 29.2221C64.0749 28.9503 64.1048 28.6999 64.093 28.4864C61.8679 28.1566 58.2963 29.3038 55.7475 32.5662C51.5297 36.2831 45.8459 34.9896 40.0609 33.6732C35.8956 32.7253 31.6778 31.7654 27.9167 32.6552C27.1099 32.846 26.3242 33.1221 25.5645 33.5014C25.5829 33.4923 25.6292 33.4416 25.7056 33.3581C25.9646 33.0747 26.5685 32.414 27.5974 31.7192C28.4961 31.1123 29.719 30.4793 31.3193 30.0494C32.9906 29.5857 34.6302 28.9823 36.2248 28.2439C40.2122 26.3566 42.254 22.7993 44.3495 19.1486C45.272 17.5413 46.205 15.9159 47.3189 14.4068C47.3594 14.3519 47.4044 14.2905 47.4538 14.223C48.8817 12.2685 54.017 5.24001 64.3274 6.21657C65.0993 5.33164 65.9142 5.03384 66.7178 4.74018C67.1097 4.59695 67.499 4.45471 67.8794 4.24581C68.2203 4.05845 68.5542 3.81748 68.8762 3.47412C68.8115 4.05026 68.7213 4.52583 68.6114 4.92255C68.403 5.67467 68.1235 6.1434 67.8105 6.47695C67.5861 6.71599 67.3445 6.88561 67.0994 7.04035L67.7675 8.0924L68.6759 9.52916L69.5513 10.9173C69.5513 10.9173 69.6495 12.4142 69.9579 13.2069C70.4412 14.447 72.8066 18.9808 72.8066 18.9808C72.9357 19.2939 73.0942 19.5714 73.239 19.8253C73.602 20.4611 73.8803 20.9484 73.4012 21.4723C73.1596 21.7399 73.1814 21.9021 73.2143 22.1479L73.2174 22.1708C73.2385 22.3283 71.9239 22.8589 71.4645 22.9724C70.2778 23.2651 69.462 22.7179 69.0524 21.9016C69.043 21.8831 69.034 21.8644 69.0251 21.8457C69.0189 21.8325 69.0128 21.8192 69.0067 21.8059C68.8247 21.4033 68.737 20.9431 68.748 20.4895C68.7546 20.2157 68.7971 19.9445 68.8762 19.6894L68.129 19.1921L69.6896 20.0224C69.5363 20.5159 69.6099 21.1231 69.8756 21.5387C70.1019 21.8926 70.52 22.1909 71.2827 22.003C71.4509 21.9614 71.8483 21.82 72.2156 21.6605C72.2682 21.6377 72.3176 21.6156 72.3633 21.5944C72.4286 21.2685 72.5819 21.0154 72.7548 20.8118C72.7021 20.6944 72.63 20.5678 72.5195 20.3737C72.5012 20.3417 72.4818 20.3076 72.4613 20.2715C72.3349 20.049 72.1806 19.7706 72.0452 19.451L72.0386 19.4383C72.021 19.4045 71.9951 19.3548 71.9622 19.2914C71.8962 19.1643 71.8015 18.9816 71.6865 18.7585C71.4563 18.3125 71.1442 17.7043 70.8167 17.057C70.1749 15.7883 69.4343 14.2913 69.1695 13.6119ZM68.6483 20.393C68.7317 19.9758 68.8762 19.6894 68.8762 19.6894C68.129 19.1921 68.129 19.1921 68.129 19.1921L68.1283 19.1935L68.1276 19.1949L68.1259 19.1984L68.1219 19.2066C68.119 19.2125 68.1153 19.2199 68.1114 19.2284C68.1033 19.2455 68.093 19.2674 68.0812 19.294C68.0578 19.3471 68.0276 19.4191 67.9949 19.5071C67.9671 19.582 67.9367 19.6703 67.9068 19.77C66.9039 19.0277 65.8819 18.6356 65.0339 18.3102C64.9296 18.2702 64.8281 18.2313 64.7295 18.1928C64.0319 17.9204 63.5366 17.6948 63.1763 17.3827C62.8617 17.1101 62.6324 16.7551 62.5282 16.1282L62.528 16.1256C62.5268 16.1177 62.5248 16.1026 62.5223 16.0811C62.5173 16.0382 62.5103 15.9696 62.5041 15.8803C62.492 15.7006 62.4836 15.442 62.5007 15.1394C62.5356 14.5235 62.672 13.7903 63.0392 13.16L61.7479 11.8671C61.6587 11.958 59.8403 13.8113 60.1592 16.644C57.7269 18.1693 56.6262 20.4463 56.3802 22.7822C54.7861 23.0409 53.5872 23.4193 52.751 23.757C52.2729 23.9503 51.9141 24.1298 51.6683 24.2656C51.5454 24.3335 51.451 24.3905 51.384 24.4327C51.3505 24.4537 51.324 24.4712 51.3041 24.4845C51.3006 24.4869 51.2973 24.4892 51.2941 24.4914C51.2885 24.495 51.2837 24.4983 51.2797 24.5013L51.2765 24.5033C51.2746 24.5047 51.2727 24.5059 51.2711 24.5071L51.2679 24.5095L51.2652 24.5113C51.2652 24.5113 51.2652 24.5113 51.7198 25.3544C51.7198 25.3544 53.4102 24.1528 57.1907 23.6635C57.1933 23.5284 57.1988 23.3932 57.2075 23.2579C57.353 20.9684 58.3898 18.6925 61.0148 17.2556C61.0555 17.2333 61.0964 17.2112 61.1377 17.1894C61.0739 16.934 61.0323 16.6862 61.0094 16.447C61.0092 16.4448 61.009 16.4427 61.0087 16.4405C60.7954 14.1794 62.2482 12.6832 62.3213 12.6087C61.3592 14.2605 61.6781 16.3028 61.6781 16.3028C61.7174 16.543 61.772 16.7603 61.8406 16.958C61.9194 17.185 62.0166 17.3861 62.1301 17.5657C62.6906 18.4536 63.6478 18.8224 64.7436 19.2446C65.6911 19.6097 66.742 20.0148 67.7295 20.8296C67.7878 20.8775 67.8457 20.9269 67.9033 20.9778C68.2241 21.2609 68.5371 21.5903 68.8362 21.979C68.5405 21.4267 68.56 20.836 68.6483 20.393Z" fill="#F5B923"/>
<path d="M51.7198 25.3544L51.2652 24.5113M51.7198 25.3544C53.1752 24.866 55.1498 24.4455 57.2483 24.249C57.5122 24.2243 57.7778 24.2031 58.0449 24.1859C61.0916 23.9883 64.2912 24.2925 66.4769 25.5594L67.5893 27.0733C67.5893 27.0733 67.9577 28.3664 67.4266 29.049C66.4433 30.3141 64.7937 32.7808 63.3694 36.5599C63.3694 36.5599 62.738 36.9857 62.2781 36.9826C62.1532 36.9818 62.0484 36.9466 61.962 36.8959C61.7302 36.7598 61.6307 36.5119 61.6307 36.5119C61.6307 36.5119 61.3997 36.7744 60.9673 37.1669C60.3489 37.728 59.3189 38.5546 57.9638 39.2577C57.6851 39.4022 57.3928 39.5415 57.0875 39.6722C57.0875 39.6722 57.0777 39.2456 57.1585 38.5759C57.3054 37.3606 57.7503 35.3447 59.0926 33.6251C59.0926 33.6251 60.3309 34.0657 60.6401 34.0536C60.9493 34.0415 61.4782 33.7916 61.349 33.0306C62.4289 32.519 63.5486 30.8006 63.9455 29.4645C63.9699 29.3821 63.9916 29.3013 64.0104 29.2221C64.0749 28.9503 64.1048 28.6999 64.093 28.4864C61.8679 28.1566 58.2963 29.3038 55.7475 32.5662C51.5297 36.2831 45.8459 34.9896 40.0609 33.6732C35.8956 32.7253 31.6778 31.7654 27.9167 32.6552C27.1099 32.846 26.3242 33.1221 25.5645 33.5014C25.5829 33.4923 25.6292 33.4416 25.7056 33.3581C25.9646 33.0747 26.5685 32.414 27.5974 31.7192C28.4961 31.1123 29.719 30.4793 31.3193 30.0494C32.9906 29.5857 34.6302 28.9823 36.2248 28.2439C40.2122 26.3566 42.254 22.7993 44.3495 19.1486C45.272 17.5413 46.205 15.9159 47.3189 14.4068C47.3594 14.3519 47.4044 14.2905 47.4538 14.223C48.8817 12.2685 54.017 5.24001 64.3274 6.21657C65.0993 5.33164 65.9142 5.03384 66.7178 4.74018C67.1097 4.59695 67.499 4.45471 67.8794 4.24581C68.2203 4.05845 68.5542 3.81748 68.8762 3.47412C68.8115 4.05026 68.7213 4.52583 68.6114 4.92255C68.403 5.67467 68.1235 6.1434 67.8105 6.47695C67.5861 6.71599 67.3445 6.88561 67.0994 7.04035L67.7675 8.0924L68.6759 9.52916L69.5513 10.9173C69.5513 10.9173 69.6495 12.4142 69.9579 13.2069C70.4412 14.447 72.8066 18.9808 72.8066 18.9808C72.9357 19.2939 73.0942 19.5714 73.239 19.8253C73.602 20.4611 73.8803 20.9484 73.4012 21.4723C73.1596 21.7399 73.1814 21.9021 73.2143 22.1479L73.2174 22.1708C73.2385 22.3283 71.9239 22.8589 71.4645 22.9724C70.2778 23.2651 69.462 22.7179 69.0524 21.9016C69.043 21.8831 69.034 21.8644 69.0251 21.8457C69.0189 21.8325 69.0128 21.8192 69.0067 21.8059C68.8247 21.4033 68.737 20.9431 68.748 20.4895C68.7546 20.2157 68.7971 19.9445 68.8762 19.6894M51.7198 25.3544C51.2652 24.5113 51.2652 24.5113 51.2652 24.5113M51.7198 25.3544C51.7198 25.3544 53.4102 24.1528 57.1907 23.6635C57.1933 23.5284 57.1988 23.3932 57.2075 23.2579C57.353 20.9684 58.3898 18.6925 61.0148 17.2556C61.0555 17.2333 61.0964 17.2112 61.1377 17.1894C61.0739 16.934 61.0323 16.6862 61.0094 16.447C61.0092 16.4448 61.009 16.4427 61.0087 16.4405C60.7954 14.1794 62.2482 12.6832 62.3213 12.6087C61.3592 14.2605 61.6781 16.3028 61.6781 16.3028C61.7174 16.543 61.772 16.7603 61.8406 16.958C61.9194 17.185 62.0166 17.3861 62.1301 17.5657C62.6906 18.4536 63.6478 18.8224 64.7436 19.2446C65.6911 19.6097 66.742 20.0148 67.7295 20.8296C67.7878 20.8775 67.8457 20.9269 67.9033 20.9778C68.2241 21.2609 68.5371 21.5903 68.8362 21.979C68.5405 21.4267 68.56 20.836 68.6483 20.393C68.7317 19.9758 68.8762 19.6894 68.8762 19.6894M51.2652 24.5113L51.9621 26.3062C53.7477 25.707 56.387 25.2046 59.0538 25.1314C61.6659 25.0597 64.1798 25.4042 65.934 26.3584L66.8032 27.5413C66.8206 27.6343 66.8378 27.7517 66.8457 27.8767C66.8668 28.2122 66.8069 28.3572 66.7823 28.3888C65.777 29.682 64.1397 32.1306 62.7024 35.8376C62.6872 35.8455 62.6716 35.8533 62.6557 35.8612C62.5717 35.9026 62.4874 35.9382 62.4117 35.9624C62.3953 35.9676 62.3804 35.9719 62.3666 35.9757L61.8995 34.8106L61.0239 35.8062L61.0231 35.8072C61.0214 35.809 61.0181 35.8126 61.0133 35.818C61.0035 35.8286 60.9875 35.8462 60.965 35.87C60.9202 35.9177 60.8504 35.9901 60.7566 36.0824C60.5691 36.267 60.2869 36.5296 59.9194 36.8298C59.4469 37.2156 58.8374 37.6599 58.1105 38.079C58.1228 38.0125 58.1359 37.9447 58.1501 37.8756C58.3401 36.9462 58.7042 35.8115 59.3961 34.7604C59.4378 34.7737 59.4805 34.7874 59.524 34.8008C59.7044 34.8572 59.9046 34.9163 60.0854 34.961C60.2318 34.9973 60.469 35.0526 60.6696 35.0447C60.9724 35.0328 61.3935 34.9128 61.7352 34.5616C61.972 34.318 62.133 34.0009 62.1989 33.6357C62.9039 33.1265 63.5265 32.3247 63.9804 31.5485C64.2721 31.05 64.5204 30.518 64.6933 30.0038C64.8603 29.5076 64.9841 28.949 64.955 28.4233L64.9096 27.6075L64.2037 27.5028C61.7018 27.1322 57.8874 28.3917 55.1607 31.8328C53.3873 33.3676 51.3083 33.9612 48.9761 34.0124C46.5992 34.0647 44.021 33.5536 41.3143 32.9464C40.9565 32.866 40.5963 32.7841 40.2344 32.7016C37.8909 32.1681 35.4713 31.6172 33.1268 31.4037C32.2587 31.3248 31.3918 31.2907 30.533 31.3216C30.8417 31.2113 31.1692 31.1081 31.5162 31.0149L31.5191 31.0141L31.5223 31.0132C33.2345 30.5382 34.914 29.92 36.5479 29.1635L36.5509 29.1619L36.5539 29.1607C39.6303 27.7045 41.6076 25.3206 43.2551 22.7441C43.8912 21.7493 44.4895 20.7068 45.0779 19.6816C45.2441 19.3919 45.4096 19.1036 45.5749 18.8183C46.3332 17.5089 47.1003 16.2366 47.9774 15.0484C48.018 14.9937 48.0627 14.9322 48.1119 14.8651C49.5059 12.9568 54.3903 6.27037 64.2564 7.20484L64.6547 7.24257L64.9376 6.91829C65.5232 6.2469 66.1306 5.99624 66.89 5.7179C66.9289 5.70367 66.9683 5.68933 67.0082 5.67481C67.1338 5.62906 67.2645 5.58148 67.3991 5.52955C67.2113 5.8067 66.9892 5.97826 66.6832 6.17145L65.8236 6.71432L67.0685 8.67498L68.7136 11.28C68.7288 11.443 68.7519 11.6658 68.7851 11.915C68.8495 12.3966 68.964 13.0838 69.1693 13.6113C69.4341 14.2906 70.1749 15.7883 70.8167 17.0571C71.1442 17.7043 71.4563 18.3125 71.6865 18.7585C71.8015 18.9816 71.8962 19.1643 71.9622 19.2914C71.9951 19.3548 72.021 19.4045 72.0386 19.4383L72.0452 19.451C72.1806 19.7706 72.3349 20.049 72.4613 20.2715C72.4818 20.3076 72.5012 20.3417 72.5195 20.3737C72.63 20.5678 72.7021 20.6944 72.7548 20.8118C72.5819 21.0154 72.4286 21.2685 72.3633 21.5944C72.3176 21.6156 72.2682 21.6377 72.2156 21.6605C71.8483 21.82 71.4509 21.9614 71.2827 22.003C70.52 22.1909 70.1019 21.8926 69.8756 21.5387C69.6099 21.1231 69.5363 20.5159 69.6896 20.0224L68.129 19.1921M51.2652 24.5113L51.2679 24.5095L51.2711 24.5071C51.2727 24.5059 51.2746 24.5047 51.2765 24.5033L51.2797 24.5013C51.2837 24.4983 51.2886 24.495 51.2941 24.4914C51.2973 24.4892 51.3006 24.4869 51.3041 24.4845C51.324 24.4712 51.3505 24.4537 51.384 24.4327C51.451 24.3905 51.5454 24.3335 51.6683 24.2656C51.9141 24.1298 52.2729 23.9503 52.751 23.757C53.5872 23.4193 54.7861 23.0409 56.3802 22.7822C56.6262 20.4463 57.7269 18.1693 60.1592 16.644C59.8403 13.8113 61.6582 11.9586 61.7474 11.8677L63.0392 13.16C62.672 13.7903 62.5356 14.5235 62.5007 15.1394C62.4836 15.442 62.492 15.7006 62.5041 15.8803C62.5103 15.9696 62.5173 16.0382 62.5223 16.0811C62.5248 16.1026 62.5268 16.1177 62.528 16.1256L62.5282 16.1282C62.6324 16.7551 62.8617 17.1101 63.1763 17.3827C63.5366 17.6948 64.0319 17.9204 64.7294 18.1928C64.8281 18.2313 64.9296 18.2702 65.0339 18.3102C65.8819 18.6356 66.9039 19.0277 67.9068 19.77C67.9367 19.6703 67.9671 19.582 67.9949 19.5071C68.0276 19.4191 68.0578 19.3471 68.0812 19.294C68.093 19.2674 68.1033 19.2455 68.1114 19.2284C68.1153 19.2199 68.119 19.2125 68.1219 19.2066L68.1259 19.1984L68.1276 19.1949L68.1283 19.1935L68.129 19.1921M68.8762 19.6894L68.129 19.1921M68.8762 19.6894C68.129 19.1921 68.129 19.1921 68.129 19.1921M72.3638 22.3218L72.3636 22.3195" stroke="#F5B923" stroke-width="1.26697"/>
</g>
</g>
</g>
<path d="M1.86999 59.5239H3.29799V63.9059H8.67399V59.5239H10.116V69.9399H8.67399V65.0679H3.29799V69.9399H1.86999V59.5239ZM16.9783 70.1639C13.8283 70.1639 11.8823 67.8399 11.8823 64.7319C11.8823 61.6099 13.8283 59.2999 16.9783 59.2999C20.1143 59.2999 22.0883 61.6099 22.0883 64.7319C22.0883 67.8399 20.1143 70.1639 16.9783 70.1639ZM16.9783 68.9039C19.3443 68.9039 20.6043 67.1119 20.6043 64.7319C20.6043 62.3379 19.3443 60.5319 16.9783 60.5319C14.6123 60.5319 13.3383 62.3379 13.3383 64.7319C13.3383 67.1119 14.6123 68.9039 16.9783 68.9039ZM22.5909 59.5239H24.0889L25.5869 65.6559C25.8389 66.6779 26.0769 68.4139 26.0769 68.4139H26.1049C26.1049 68.4139 26.3849 66.6639 26.6509 65.6419L28.3309 59.5239H29.8429L31.4669 65.6419C31.7329 66.6639 32.0129 68.4139 32.0129 68.4139H32.0409C32.0409 68.4139 32.3069 66.6779 32.5589 65.6559L34.1129 59.5239H35.5829L32.6849 69.9399H31.2989L29.5909 63.2759C29.3529 62.3519 29.1009 60.6719 29.1009 60.6719H29.0729C29.0729 60.6719 28.8069 62.3519 28.5689 63.2619L26.7349 69.9399H25.3069L22.5909 59.5239ZM39.9994 59.5239H48.2874V60.7839H44.8574V69.9399H43.4154V60.7839H39.9994V59.5239ZM53.8787 70.1639C50.7287 70.1639 48.7827 67.8399 48.7827 64.7319C48.7827 61.6099 50.7287 59.2999 53.8787 59.2999C57.0147 59.2999 58.9887 61.6099 58.9887 64.7319C58.9887 67.8399 57.0147 70.1639 53.8787 70.1639ZM53.8787 68.9039C56.2447 68.9039 57.5047 67.1119 57.5047 64.7319C57.5047 62.3379 56.2447 60.5319 53.8787 60.5319C51.5127 60.5319 50.2387 62.3379 50.2387 64.7319C50.2387 67.1119 51.5127 68.9039 53.8787 68.9039ZM68.9398 59.5239C70.0178 59.5239 70.8438 59.8179 71.4318 60.4059C71.8658 60.8539 72.1318 61.4559 72.1318 62.2119C72.1318 63.3459 71.4878 64.0739 70.3678 64.3959V64.4379C71.6418 64.7319 72.5518 65.5719 72.5518 66.9439C72.5518 67.7699 72.2578 68.4699 71.7538 68.9739C71.1658 69.5899 70.2698 69.9399 69.1498 69.9399H64.4598V59.5239H68.9398ZM68.7438 63.9619C69.9618 63.9619 70.6898 63.3599 70.6898 62.3099C70.6898 61.3299 70.0318 60.7559 68.9118 60.7559H65.8878V63.9619H68.7438ZM69.0658 68.6799C69.7798 68.6799 70.2978 68.4979 70.6338 68.1619C70.9278 67.8819 71.0958 67.4759 71.0958 66.9859C71.0958 65.7399 70.2138 65.1239 68.9818 65.1239H65.8878V68.6799H69.0658ZM77.9895 70.0939C75.6515 70.0939 73.9715 69.0579 73.9715 66.5519V59.5239H75.3995V66.4259C75.3995 68.1339 76.3515 68.8759 78.0175 68.8759C79.6275 68.8759 80.5795 68.1339 80.5795 66.4259V59.5239H82.0075V66.5519C82.0075 69.0579 80.2715 70.0939 77.9895 70.0939ZM86.9229 65.5719L83.1709 59.5239H84.7669L86.6429 62.6599C87.0769 63.4019 87.6649 64.6059 87.6649 64.6059H87.6929C87.6929 64.6059 88.2949 63.4019 88.7289 62.6599L90.6189 59.5239H92.1449L88.3509 65.6419V69.9399H86.9229V65.5719Z" fill="white"/>
<defs>
<clipPath id="clip0_7010_1606">
<rect width="53.44" height="42" fill="white" transform="translate(19.8799 0.939941)"/>
</clipPath>
<clipPath id="clip1_7010_1606">
<rect width="53.44" height="41.81" fill="white" transform="translate(19.8799 0.939941)"/>
</clipPath>
<clipPath id="clip2_7010_1606">
<rect width="57.0136" height="41.81" fill="white" transform="translate(18.0928 0.939941)"/>
</clipPath>
</defs>
</svg>
