<svg width="76" height="83" viewBox="0 0 76 83" fill="none" xmlns="http://www.w3.org/2000/svg">
<g clip-path="url(#clip0_7010_1615)">
<g clip-path="url(#clip1_7010_1615)">
<path d="M57.5662 21.7322C55.5542 16.9541 51.8385 13.0941 47.1406 10.9015C42.4428 8.70895 37.0977 8.34025 32.1432 9.867C27.1888 11.3937 22.9784 14.707 20.3294 19.1635C17.6805 23.6201 16.782 28.9019 17.8084 33.9837C18.8348 39.0654 21.7128 43.5845 25.8838 46.6636C30.0548 49.7427 35.221 51.162 40.3797 50.6461C45.5384 50.1302 50.3213 47.7159 53.7999 43.872C57.2786 40.0279 59.2048 35.0283 59.2045 29.844C59.2078 27.0575 58.6507 24.2988 57.5662 21.7322ZM57.0092 29.844C57.0096 31.4136 56.8116 32.9771 56.4196 34.497L52.2564 33.1447C52.7747 30.9342 52.7658 28.6328 52.2304 26.4263L56.3915 25.074C56.8021 26.6307 57.0097 28.234 57.0092 29.844ZM38.3711 43.025C35.7636 43.0272 33.2142 42.2559 31.0451 40.8089C28.8761 39.3618 27.185 37.304 26.1857 34.8957C25.1864 32.4873 24.9238 29.8367 25.4312 27.2792C25.9386 24.7216 27.1931 22.372 29.0361 20.5275C30.879 18.683 33.2276 17.4265 35.7848 16.9171C38.3419 16.4076 40.9928 16.668 43.4019 17.6653C45.811 18.6626 47.8703 20.3521 49.3191 22.5199C50.7679 24.6878 51.5412 27.2366 51.5412 29.844C51.5379 33.3387 50.148 36.6894 47.6768 39.1606C45.2056 41.6318 41.855 43.0216 38.3603 43.025H38.3711ZM19.733 29.844C19.7328 28.2348 19.9404 26.6322 20.3507 25.0762L24.5117 26.4285C23.9764 28.6349 23.9675 30.9363 24.4857 33.1469L20.3203 34.4992C19.9214 32.9794 19.7168 31.4153 19.7114 29.844H19.733ZM55.7262 22.9934L51.5672 24.3458C50.8482 22.6263 49.799 21.0647 48.479 19.7491C48.1986 19.4703 47.9097 19.2037 47.6121 18.9494L50.1586 15.4147C52.6206 17.4291 54.5292 20.0373 55.7045 22.9934H55.7262ZM48.4009 14.123L45.8328 17.6599C43.9099 16.4781 41.7317 15.7743 39.4807 15.6076V11.2298C42.6456 11.4168 45.7095 12.413 48.3793 14.123H48.4009ZM37.2831 11.2298V15.6076C35.0322 15.7743 32.854 16.4781 30.931 17.6599L28.3629 14.123C31.0326 12.413 34.0966 11.4168 37.2615 11.2298H37.2831ZM26.5836 15.4125L29.1365 18.9494C28.8375 19.2037 28.5485 19.4703 28.2697 19.7491C26.9501 21.0643 25.901 22.6252 25.1814 24.3436L21.0225 22.9934C22.1966 20.0378 24.1028 17.4291 26.5619 15.4125H26.5836ZM20.9943 36.5862L25.1532 35.236C25.8684 36.9963 26.9279 38.5959 28.2697 39.941C28.5326 40.2041 28.8035 40.4547 29.0824 40.6931L26.5121 44.23C24.0442 42.1958 22.1374 39.5647 20.9727 36.5862H20.9943ZM28.2697 45.526L30.8378 41.9912C32.7765 43.1949 34.9773 43.9123 37.2528 44.0826V48.4604C34.055 48.2756 30.9599 47.2645 28.2697 45.526ZM39.4481 48.4604V44.0826C41.7238 43.9141 43.9247 43.1973 45.8632 41.9934L48.4313 45.5281C45.7431 47.264 42.6514 48.2742 39.4569 48.4604H39.4481ZM50.2041 44.2321L47.6337 40.6952C47.9126 40.454 48.1842 40.2026 48.4487 39.941C49.7962 38.5976 50.8611 36.9978 51.5802 35.236L55.7392 36.5884C54.5787 39.5658 52.6764 42.197 50.2127 44.2321H50.2041Z" fill="#F5B923"/>
<path d="M33.9443 24.6185C34.1165 24.6185 34.2849 24.5674 34.4282 24.4717C34.5714 24.376 34.683 24.24 34.749 24.0808C34.815 23.9217 34.8322 23.7466 34.7986 23.5776C34.7649 23.4086 34.682 23.2534 34.5602 23.1316C34.4383 23.0098 34.2832 22.9269 34.1142 22.8932C33.9452 22.8596 33.7701 22.8768 33.611 22.9428C33.4517 23.0087 33.3157 23.1204 33.22 23.2636C33.1243 23.4069 33.0732 23.5753 33.0732 23.7475C33.0736 23.9784 33.1655 24.1997 33.3287 24.363C33.492 24.5263 33.7134 24.6182 33.9443 24.6185Z" fill="#F5B923"/>
<path d="M48.915 31.4203C49.2022 31.4207 49.4842 31.3427 49.7304 31.1946C49.9765 31.0465 50.1774 30.834 50.3116 30.5801C50.4456 30.3261 50.5076 30.0404 50.491 29.7538C50.4744 29.4672 50.3796 29.1905 50.2171 28.9537C50.0545 28.7169 49.8304 28.5291 49.5687 28.4104C49.3072 28.2917 49.0181 28.2469 48.7328 28.2805C48.4474 28.3141 48.1768 28.4251 47.95 28.6014C47.7232 28.7775 47.5488 29.0124 47.4459 29.2804H40.5248C40.4221 28.8803 40.2137 28.5152 39.9215 28.2232C39.6293 27.9311 39.264 27.7229 38.8637 27.6203V20.6965C39.2075 20.5645 39.4941 20.3166 39.6742 19.9955C39.8541 19.6744 39.9158 19.3005 39.8487 18.9386C39.7816 18.5768 39.5898 18.2499 39.3068 18.0145C39.0237 17.7792 38.6671 17.6504 38.2988 17.6504C37.9307 17.6504 37.574 17.7792 37.291 18.0145C37.0078 18.2499 36.8161 18.5768 36.749 18.9386C36.682 19.3005 36.7437 19.6744 36.9236 19.9955C37.1035 20.3166 37.3903 20.5645 37.7341 20.6965V27.6136C37.3337 27.7163 36.9684 27.9244 36.6762 28.2165C36.3839 28.5086 36.1756 28.8737 36.0729 29.2738H29.1519C29.0197 28.9304 28.7714 28.6441 28.4501 28.4645C28.1289 28.2849 27.7548 28.2233 27.3929 28.2906C27.031 28.3577 26.704 28.5494 26.4687 28.8322C26.2333 29.1152 26.1045 29.4715 26.1045 29.8394C26.1045 30.2073 26.2333 30.5636 26.4687 30.8466C26.704 31.1294 27.031 31.3211 27.3929 31.3882C27.7548 31.4555 28.1289 31.3939 28.4501 31.2143C28.7714 31.0347 29.0197 30.7484 29.1519 30.405H36.0729C36.1733 30.8064 36.3799 31.1733 36.6709 31.4673C36.962 31.7614 37.3269 31.9717 37.7273 32.0764V38.9935C37.3836 39.1254 37.0968 39.3734 36.9169 39.6945C36.737 40.0156 36.6752 40.3895 36.7423 40.7513C36.8095 41.1131 37.0011 41.44 37.2843 41.6753C37.5674 41.9108 37.9239 42.0396 38.2922 42.0396C38.6604 42.0396 39.0169 41.9108 39.3001 41.6753C39.5831 41.44 39.7749 41.1131 39.842 40.7513C39.9091 40.3895 39.8473 40.0156 39.6674 39.6945C39.4875 39.3734 39.2008 39.1254 38.857 38.9935V32.0764C39.2573 31.9737 39.6227 31.7656 39.9149 31.4735C40.2071 31.1814 40.4155 30.8162 40.518 30.4161H47.4392C47.5548 30.7131 47.7577 30.9679 48.0211 31.1472C48.2846 31.3264 48.5962 31.4217 48.915 31.4203Z" fill="#F5B923"/>
</g>
</g>
<rect x="34.2998" y="0.904785" width="41" height="20" rx="4" fill="#FF0000"/>
<path d="M41.2492 5.97678H42.9532L45.9172 10.6568C46.3972 11.4368 47.0332 12.7328 47.0332 12.7328H47.0692C47.0692 12.7328 46.9732 11.3408 46.9732 10.4528V5.97678H48.5452V14.9048H46.8412L43.8892 10.2488C43.3972 9.45678 42.7612 8.16078 42.7612 8.16078H42.7372C42.7372 8.16078 42.8212 9.55279 42.8212 10.4408V14.9048H41.2492V5.97678ZM50.214 5.97678H56.742V7.39278H51.87V9.60078H56.178V10.9328H51.87V13.4528H56.85V14.9048H50.214V5.97678ZM57.5456 5.97678H59.2496L60.3056 10.2968C60.5696 11.3888 60.7736 13.2128 60.7736 13.2128H60.7976C60.7976 13.2128 61.0856 11.3168 61.3376 10.2488L62.4296 5.97678H64.0616L65.1416 10.2368C65.3936 11.3168 65.6576 13.2128 65.6576 13.2128H65.6816C65.6816 13.2128 65.9216 11.3768 66.1976 10.2848L67.2536 5.97678H68.9576L66.4856 14.9048H64.8656L63.7256 10.2368C63.4856 9.28878 63.2576 7.56078 63.2576 7.56078H63.2336C63.2336 7.56078 62.9936 9.28878 62.7776 10.2368L61.5776 14.9048H59.9216L57.5456 5.97678Z" fill="white"/>
<path d="M2.1903 67.5239H3.6883L7.95831 74.0479C8.46231 74.8179 9.12031 76.1199 9.12031 76.1199H9.16231C9.16231 76.1199 9.0643 74.7619 9.0643 73.8939V67.5239H10.4083V77.9399H8.92431L4.6683 71.4159C4.1643 70.6319 3.4783 69.3579 3.4783 69.3579H3.4503C3.4503 69.3579 3.5343 70.7159 3.5343 71.5559V77.9399H2.1903V67.5239ZM12.5673 67.5239H19.9733V68.7839H13.9953V71.9339H19.3993V73.1239H13.9953V76.6379H20.1273V77.9399H12.5673V67.5239ZM21.0655 67.5239H22.5635L24.0615 73.6559C24.3135 74.6779 24.5515 76.4139 24.5515 76.4139H24.5795C24.5795 76.4139 24.8595 74.6639 25.1255 73.6419L26.8055 67.5239H28.3175L29.9415 73.6419C30.2075 74.6639 30.4875 76.4139 30.4875 76.4139H30.5155C30.5155 76.4139 30.7815 74.6779 31.0335 73.6559L32.5875 67.5239H34.0575L31.1595 77.9399H29.7735L28.0655 71.2759C27.8275 70.3519 27.5755 68.6719 27.5755 68.6719H27.5475C27.5475 68.6719 27.2815 70.3519 27.0435 71.2619L25.2095 77.9399H23.7815L21.0655 67.5239ZM39.118 67.5239H40.616L44.886 74.0479C45.39 74.8179 46.048 76.1199 46.048 76.1199H46.09C46.09 76.1199 45.992 74.7619 45.992 73.8939V67.5239H47.336V77.9399H45.852L41.596 71.4159C41.092 70.6319 40.406 69.3579 40.406 69.3579H40.378C40.378 69.3579 40.462 70.7159 40.462 71.5559V77.9399H39.118V67.5239ZM49.495 67.5239H56.621V68.7839H50.923V71.9059H55.669V73.1239H50.923V77.9399H49.495V67.5239ZM57.56 67.5239H65.848V68.7839H62.418V77.9399H60.976V68.7839H57.56V67.5239ZM70.9811 78.1499C68.0691 78.1499 66.6271 76.5539 66.5151 74.5659H67.9291C68.0971 76.1339 69.1331 77.0019 71.0231 77.0019C72.4091 77.0019 73.4171 76.3859 73.4171 75.1259C73.4171 73.7679 72.2131 73.4459 70.3931 73.0399C68.5311 72.6479 66.9491 72.1159 66.9491 70.1139C66.9491 68.3639 68.4191 67.3279 70.5611 67.3279C73.1231 67.3279 74.2711 68.6159 74.5231 70.3939H73.1371C72.9551 69.1339 72.0451 68.4479 70.5751 68.4479C69.2031 68.4479 68.3071 69.0079 68.3071 70.0439C68.3071 71.1779 69.4411 71.4999 71.0091 71.8219C73.0251 72.2279 74.8591 72.7459 74.8591 75.0699C74.8591 77.0439 73.2351 78.1499 70.9811 78.1499Z" fill="white"/>
<defs>
<clipPath id="clip0_7010_1615">
<rect width="41.81" height="41.81" fill="white" transform="translate(17.3945 8.93994)"/>
</clipPath>
<clipPath id="clip1_7010_1615">
<rect width="41.81" height="41.81" fill="white" transform="translate(17.3945 8.93994)"/>
</clipPath>
</defs>
</svg>
