<svg width="66" height="75" viewBox="0 0 66 75" fill="none" xmlns="http://www.w3.org/2000/svg">
<g clip-path="url(#clip0_7010_1576)">
<g clip-path="url(#clip1_7010_1576)">
<g clip-path="url(#clip2_7010_1576)">
<mask id="mask0_7010_1576" style="mask-type:luminance" maskUnits="userSpaceOnUse" x="7" y="0" width="52" height="43">
<path d="M58.0847 0.939941H7.31543V42.7499H58.0847V0.939941Z" fill="white"/>
</mask>
<g mask="url(#mask0_7010_1576)">
<path d="M31.7416 27.521C31.7235 27.7931 31.6555 28.0197 31.5375 28.201C31.4197 28.3824 31.2428 28.5298 31.0071 28.6431C30.8077 28.7383 30.5583 28.8063 30.2589 28.8471C29.9596 28.8835 29.6467 28.9017 29.3203 28.9017V30.5542H31.4559V35.9059H29.3203V37.6739H36.0806V35.9059H33.9928V27.5212L31.7416 27.521Z" fill="white"/>
<path d="M32.7 0.939941C31.4911 0.939941 30.4116 5.31455 29.4335 6.02502C28.4555 6.73549 23.9606 6.4104 23.5872 7.56009C23.2135 8.70978 27.0411 11.0884 27.4147 12.2379C27.7884 13.3873 26.0901 17.5613 27.0681 18.2718C28.0461 18.9823 31.4913 16.0774 32.7 16.0774C33.9089 16.0774 37.354 18.9823 38.332 18.2718C39.31 17.5613 37.6117 13.3875 37.9853 12.2379C38.359 11.0882 42.1864 8.7096 41.8129 7.56009C41.4393 6.41061 36.9448 6.73549 35.9667 6.02502C34.9887 5.31455 33.9089 0.939941 32.7 0.939941Z" fill="#E4081C"/>
<path d="M41.7793 34.3232C41.7793 32.4382 43.3074 30.9102 45.1924 30.9102H54.6716C56.5569 30.9102 58.0847 32.4382 58.0847 34.3232V42.7501H41.7793V34.3232Z" fill="#F7B500"/>
<path d="M24.3623 25.813C24.3623 23.928 25.8904 22.3999 27.7754 22.3999H36.143C38.0279 22.3999 39.556 23.928 39.556 25.813V42.7499H24.3623V25.813Z" fill="#FFD300"/>
<path d="M7.31543 30.9931C7.31543 29.1081 8.84351 27.5801 10.7285 27.5801H19.0961C20.9811 27.5801 22.5091 29.1081 22.5091 30.9931V43.1201H7.31543V30.9931Z" fill="#E28900"/>
<path fill-rule="evenodd" clip-rule="evenodd" d="M52.349 21.2069L52.3823 21.2001C51.23 20.954 50.3439 20.0262 50.1493 18.8612L50.0602 18.3301L49.9772 18.8245C49.7815 19.9906 48.895 20.9179 47.7413 21.1638L47.708 21.1709C48.8607 21.4167 49.7459 22.3437 49.9413 23.5088L50.0307 24.0406L50.1135 23.5457C50.3089 22.3801 51.195 21.4526 52.349 21.2069Z" fill="#F7B500"/>
<path fill-rule="evenodd" clip-rule="evenodd" d="M16.7715 12.8866L16.7942 12.8817C16.0105 12.7141 15.408 12.0834 15.2754 11.2909L15.2149 10.9297L15.1583 11.266C15.0254 12.0588 14.4225 12.6898 13.6379 12.8567L13.6152 12.8616C14.3992 13.0289 15.0014 13.66 15.134 14.4518L15.1945 14.8137L15.2508 14.4771C15.3841 13.6839 15.9869 13.0533 16.7715 12.8866Z" fill="#F7B500"/>
<path d="M29.666 30.2576L31.7906 28.7729H33.8001V37.7322H31.5603V31.3583L29.666 32.6638V30.2576Z" fill="#E28900"/>
<path d="M29.2949 29.8875L31.4196 28.4028H33.429V37.3621H31.1892V30.9882L29.2949 32.2937V29.8875Z" fill="#F9B32A"/>
<path d="M12.8105 39.2424V37.6553L15.7799 35.5768C16.0598 35.3788 16.2612 35.2286 16.384 35.1263C16.5137 35.017 16.6093 34.9044 16.6707 34.7884C16.739 34.6655 16.7731 34.5187 16.7731 34.3481C16.7731 34.0955 16.6844 33.8941 16.5069 33.744C16.3362 33.587 16.0939 33.5085 15.7799 33.5085C15.4318 33.5085 15.1519 33.6006 14.9403 33.7849C14.7355 33.9624 14.6229 34.2116 14.6024 34.5324H12.8105C12.8242 34.075 12.9368 33.6518 13.1484 33.2627C13.36 32.8668 13.6877 32.546 14.1314 32.3002C14.5819 32.0477 15.1451 31.9214 15.8209 31.9214C16.4079 31.9214 16.9096 32.0204 17.326 32.2183C17.7424 32.4163 18.0598 32.6893 18.2783 33.0375C18.4967 33.3788 18.6059 33.7679 18.6059 34.2047C18.6059 34.5597 18.5479 34.8703 18.4319 35.1365C18.3158 35.4027 18.1349 35.6519 17.8892 35.884C17.6503 36.116 17.3192 36.3788 16.896 36.6724L15.483 37.6553V37.7065H18.7493V39.2424H12.8105Z" fill="#FFD200"/>
<path d="M12.4404 38.8723V37.2852L15.4098 35.2067C15.6897 35.0087 15.891 34.8585 16.0139 34.7561C16.1436 34.6469 16.2392 34.5343 16.3006 34.4182C16.3689 34.2954 16.403 34.1486 16.403 33.978C16.403 33.7254 16.3143 33.524 16.1368 33.3738C15.9661 33.2168 15.7238 33.1383 15.4098 33.1383C15.0617 33.1383 14.7818 33.2305 14.5702 33.4148C14.3654 33.5923 14.2528 33.8414 14.2323 34.1623H12.4404C12.4541 33.7049 12.5667 33.2817 12.7783 32.8926C12.9899 32.4967 13.3176 32.1759 13.7613 31.9301C14.2118 31.6776 14.775 31.5513 15.4507 31.5513C16.0378 31.5513 16.5395 31.6502 16.9559 31.8482C17.3723 32.0462 17.6897 32.3192 17.9082 32.6673C18.1266 33.0086 18.2358 33.3977 18.2358 33.8346C18.2358 34.1896 18.1778 34.5002 18.0617 34.7664C17.9457 35.0326 17.7648 35.2817 17.5191 35.5138C17.2802 35.7459 16.9491 36.0087 16.5259 36.3022L15.1129 37.2852V37.3364H18.3792V38.8723H12.4404Z" fill="#F7B500"/>
<path d="M51.27 36.052C52.0481 36.0657 52.6522 36.25 53.0823 36.6049C53.5123 36.9599 53.7274 37.4753 53.7274 38.1511C53.7274 38.5879 53.6147 38.9839 53.3895 39.3388C53.1642 39.6938 52.8229 39.9771 52.3656 40.1887C51.9082 40.4003 51.3485 40.5061 50.6863 40.5061C50.0447 40.5061 49.4884 40.4037 49.0174 40.1989C48.5532 39.9941 48.1948 39.7142 47.9423 39.3593C47.6897 38.9975 47.5498 38.5948 47.5225 38.1511H49.2938C49.3211 38.4241 49.4474 38.6391 49.6727 38.7961C49.8979 38.9463 50.2256 39.0214 50.6556 39.0214C51.0652 39.0214 51.3792 38.9361 51.5976 38.7654C51.8229 38.5879 51.9355 38.3593 51.9355 38.0794C51.9355 37.4787 51.5157 37.1783 50.6761 37.1783H49.0891V36.0213L51.0242 34.7209V34.6697H48.1061V33.1851H53.2871V34.6595L51.27 36.0008V36.052Z" fill="#E28900"/>
<path d="M50.8987 36.052C51.6769 36.0657 52.281 36.25 52.7111 36.6049C53.1411 36.9599 53.3561 37.4753 53.3561 38.1511C53.3561 38.5879 53.2435 38.9839 53.0182 39.3388C52.793 39.6938 52.4517 39.9771 51.9943 40.1887C51.537 40.4003 50.9772 40.5061 50.3151 40.5061C49.6736 40.5061 49.1173 40.4037 48.6463 40.1989C48.1821 39.9941 47.8237 39.7142 47.5712 39.3593C47.3186 38.9975 47.1787 38.5948 47.1514 38.1511H48.9227C48.9501 38.4241 49.0763 38.6391 49.3016 38.7961C49.5269 38.9463 49.8545 39.0214 50.2844 39.0214C50.694 39.0214 51.008 38.9361 51.2264 38.7654C51.4517 38.5879 51.5643 38.3593 51.5643 38.0794C51.5643 37.4787 51.1445 37.1783 50.3049 37.1783H48.718V36.0213L50.653 34.7209V34.6697H47.735V33.1851H52.9159V34.6595L50.8987 36.0008V36.052Z" fill="#FCD842"/>
</g>
</g>
</g>
</g>
<path d="M6.39824 59.5239C8.26024 59.5239 9.52024 60.6719 9.52024 62.3939C9.52024 63.6679 9.00224 64.5639 7.61624 64.9979V65.0399C8.79224 65.3899 9.12824 66.0899 9.22624 67.5879C9.35224 69.2259 9.49224 69.7299 9.70224 69.8699V69.9399H8.17624C7.93824 69.7439 7.91024 69.2679 7.79824 67.6019C7.70024 66.1319 7.08424 65.5999 5.72624 65.5999H2.95424V69.9399H1.52624V59.5239H6.39824ZM5.93624 64.4519C7.35024 64.4519 8.05024 63.7379 8.05024 62.6039C8.05024 61.3859 7.47624 60.7559 6.00624 60.7559H2.95424V64.4519H5.93624ZM14.325 59.5239H15.921L19.757 69.9399H18.189L17.153 66.9019H13.051L11.987 69.9399H10.517L14.325 59.5239ZM13.443 65.7819H16.775L15.781 62.8699C15.431 61.8619 15.151 60.6579 15.151 60.6579H15.109C15.109 60.6579 14.801 61.9039 14.465 62.8699L13.443 65.7819ZM21.1044 59.5239H22.6024L26.8724 66.0479C27.3764 66.8179 28.0344 68.1199 28.0344 68.1199H28.0764C28.0764 68.1199 27.9784 66.7619 27.9784 65.8939V59.5239H29.3224V69.9399H27.8384L23.5824 63.4159C23.0784 62.6319 22.3924 61.3579 22.3924 61.3579H22.3644C22.3644 61.3579 22.4484 62.7159 22.4484 63.5559V69.9399H21.1044V59.5239ZM31.4813 59.5239H32.9093V62.7439C32.9093 63.4439 32.8813 64.1579 32.8533 64.6619L37.8793 59.5099H39.6713L35.4853 63.6959L40.0073 69.9399H38.3413L34.4913 64.6199L32.9093 66.1739V69.9399H31.4813V59.5239ZM41.107 59.5239H42.535V69.9399H41.107V59.5239ZM44.7157 59.5239H46.2137L50.4837 66.0479C50.9877 66.8179 51.6457 68.1199 51.6457 68.1199H51.6877C51.6877 68.1199 51.5897 66.7619 51.5897 65.8939V59.5239H52.9337V69.9399H51.4497L47.1937 63.4159C46.6897 62.6319 46.0037 61.3579 46.0037 61.3579H45.9757C45.9757 61.3579 46.0597 62.7159 46.0597 63.5559V69.9399H44.7157V59.5239ZM62.8066 68.4699C62.0646 69.6039 60.9446 70.1639 59.5866 70.1639C58.1306 70.1639 56.9126 69.6039 56.0586 68.6519C55.1906 67.6999 54.7006 66.3559 54.7006 64.7739C54.7006 63.2059 55.1626 61.8199 56.0306 60.8399C56.8706 59.8879 58.1026 59.3139 59.7126 59.3139C62.1626 59.3139 63.5766 60.6299 63.9686 62.5479H62.4846C62.1766 61.3719 61.2946 60.5459 59.6986 60.5459C57.2626 60.5459 56.1566 62.3799 56.1566 64.7739C56.1566 67.2519 57.5986 68.9179 59.6566 68.9179C61.7286 68.9179 62.7086 67.5179 62.7226 65.8659V65.6419H59.6986V64.4239H64.1366V69.9399H63.2266L62.8486 68.4699H62.8066Z" fill="white"/>
<defs>
<clipPath id="clip0_7010_1576">
<rect width="50.77" height="42" fill="white" transform="translate(7.31543 0.939941)"/>
</clipPath>
<clipPath id="clip1_7010_1576">
<rect width="50.77" height="41.81" fill="white" transform="translate(7.31543 0.939941)"/>
</clipPath>
<clipPath id="clip2_7010_1576">
<rect width="50.7693" height="41.81" fill="white" transform="translate(7.31543 0.939941)"/>
</clipPath>
</defs>
</svg>
