<svg width="82" height="75" viewBox="0 0 82 75" fill="none" xmlns="http://www.w3.org/2000/svg">
<g clip-path="url(#clip0_7010_1625)">
<g clip-path="url(#clip1_7010_1625)">
<g clip-path="url(#clip2_7010_1625)">
<path d="M60.8553 30.6386C60.8524 30.6158 60.8471 30.5936 60.8392 30.572C60.8332 30.5494 60.8245 30.5277 60.8133 30.5072C60.2819 29.0927 58.8362 28.0188 57.8204 26.9686C56.457 25.5596 55.1049 24.1437 53.6981 22.7769C52.3438 21.4613 50.9675 20.1634 49.5453 18.9193C50.5952 18.2379 51.8684 17.4118 52.0899 16.1479C52.2764 15.0859 51.5838 14.4557 50.904 13.7952L51.4074 13.1751C51.995 14.2357 52.6946 15.2434 53.5758 16.0805C53.987 16.4714 54.9884 17.5405 55.5995 17.0586C56.0725 16.6857 55.7193 16.2161 55.4753 15.8293C55.0773 15.1958 54.6549 14.5777 54.2002 13.9831C53.6286 13.2365 53.0074 12.5225 52.2944 11.9075C52.4445 11.3671 52.3227 10.7761 51.7274 10.5457C51.2199 10.3491 50.7846 10.5773 50.3935 10.8689C49.6168 9.60176 48.7592 8.36747 47.7248 7.29645C47.3678 6.92698 46.3316 5.67518 45.7476 6.14728C45.1912 6.59707 45.8955 7.48131 46.1396 7.92151C46.5173 8.61016 46.9549 9.26427 47.4472 9.87628C48.0031 10.5625 48.6499 11.1892 49.3919 11.6728L49.0563 11.945C48.3961 11.265 47.7658 10.5725 46.7037 10.7588C45.4405 10.9804 44.6146 12.2526 43.9335 13.3025C42.3623 11.5028 40.7054 9.77198 39.0223 8.07855C37.4759 6.52466 35.8967 4.99162 34.3087 3.47585C33.344 2.55565 32.1283 1.46186 30.7126 2.10538C29.4206 2.69184 28.7733 4.28121 28.5401 5.58863C28.2876 7.0073 28.5362 8.46576 28.8688 9.85062C29.5954 12.8762 30.885 15.7712 32.2786 18.5422C33.12 20.2159 34.0148 21.8749 35.0011 23.4686L30.0365 29.0567C28.8024 28.0322 27.5063 27.0549 26.0794 26.3162C24.9958 25.7552 23.8563 25.2635 22.6844 25.8847C21.6296 26.4445 20.8214 27.7309 21.1362 28.9442C21.3249 29.6704 21.888 30.343 22.3327 30.9299C22.8486 31.6059 23.4008 32.2532 23.9869 32.8691C24.6918 33.6146 25.4328 34.3358 26.2165 35.0008C25.8766 35.5909 25.352 36.4068 25.8993 36.9541C26.4467 37.5016 27.2618 36.9782 27.8518 36.637C28.3773 37.2549 28.9395 37.8444 29.5161 38.4136C30.6819 39.5644 31.9853 40.7892 33.4578 41.5411C34.5973 42.1232 35.9327 41.5609 36.6778 40.6086C37.5265 39.524 37.3038 38.4028 36.7677 37.2431C36.0207 35.6281 34.9316 34.1802 33.7978 32.8154L39.3838 27.8507C41.4489 29.1298 43.6146 30.2704 45.81 31.3052C47.6799 32.1867 49.5978 32.9911 51.5788 33.5944C53.3514 34.1346 55.3262 34.6379 57.1859 34.3259C58.9587 34.0298 61.3995 32.7963 60.8553 30.6386ZM53.1894 13.6583C53.537 14.0673 53.8626 14.4938 54.1723 14.9316C54.3452 15.1754 54.5131 15.4223 54.6757 15.6723C54.7815 15.8339 55.1984 16.3182 55.1625 16.4971C55.1311 16.6538 55.195 16.5354 55.0689 16.5141C55.021 16.5061 54.9522 16.4392 54.9124 16.4129C54.7724 16.3193 54.6365 16.2203 54.5048 16.1156C54.1994 15.8708 53.912 15.6044 53.6447 15.3183C52.9029 14.5324 52.3134 13.6252 51.8035 12.6762L51.9952 12.4271C52.4212 12.8094 52.8202 13.2208 53.1894 13.6583ZM51.7008 11.8534L51.2432 12.4501L50.4872 13.3816C50.148 13.0426 49.8089 12.7035 49.4701 12.3643L50.1061 11.8488L50.522 11.5112C50.6441 11.4122 50.7642 11.2907 50.9004 11.2122C51.4261 10.9091 51.9976 11.1829 51.7008 11.8534ZM48.2418 9.90673C47.8321 9.45089 47.4611 8.96168 47.1326 8.44418C46.9432 8.14928 46.7653 7.8475 46.5987 7.53885C46.5544 7.45733 46.0766 6.58244 46.0521 6.61864C46.1034 6.5424 47.572 7.99224 47.6624 8.09317C48.5255 9.05869 49.257 10.1333 49.9309 11.2377L49.8743 11.2837C49.2629 10.9114 48.7235 10.4364 48.2418 9.90673ZM30.0306 11.7651C29.1819 9.19128 28.2325 5.80226 30.0512 3.40944C30.4644 2.86566 31.0609 2.42953 31.7741 2.50434C32.5605 2.58682 33.2071 3.2464 33.7542 3.75926C35.2478 5.15898 36.7111 6.6057 38.1615 8.05097C40.0229 9.90505 41.8511 11.8059 43.5773 13.7885L36.2225 22.0909C35.9509 22.3974 35.6791 22.7039 35.4074 23.0106C33.2368 19.4912 31.3237 15.6867 30.0306 11.7651ZM36.5728 39.6277C36.2883 40.3835 35.5642 41.026 34.7633 41.1706C33.8548 41.3344 33.045 40.6299 32.3632 40.1229C31.6289 39.5765 30.9394 38.9692 30.2774 38.3369C29.5237 37.6159 28.7911 36.8602 28.1241 36.0591C28.0388 35.9565 27.8767 35.9568 27.7684 36.0131L27.239 36.2871C27.1177 36.3502 26.9971 36.4155 26.8748 36.4766C26.6627 36.5823 26.6579 36.6389 26.4361 36.4171C26.2204 36.2014 26.2582 36.2186 26.3592 36.0124C26.4167 35.8949 26.479 35.7799 26.5404 35.6638L26.8413 35.0847C26.8971 34.9774 26.8974 34.8136 26.7955 34.7287C25.9931 34.061 25.2372 33.329 24.518 32.5752C23.8858 31.9139 23.2783 31.2244 22.7321 30.4892C22.2249 29.8074 21.5205 28.9977 21.6842 28.0891C21.8281 27.2883 22.4715 26.5639 23.227 26.2793C23.9222 26.018 24.5597 26.2539 25.2012 26.5406C26.9118 27.3053 28.4348 28.472 29.861 29.6695C29.9768 29.7669 30.1636 29.7964 30.2763 29.6695C32.042 27.6822 33.8082 25.6948 35.5745 23.7072C38.0862 20.8716 40.5979 18.0355 43.1098 15.1989L44.1747 13.9969C44.1833 13.9864 44.1913 13.9754 44.1986 13.964C44.2066 13.9555 44.2139 13.9467 44.2207 13.9373C44.4365 13.6101 44.6679 13.2914 44.9021 12.9766C45.3847 12.3276 45.873 11.5479 46.7165 11.3563C47.6754 11.1386 48.2268 11.9533 48.8247 12.5506L50.302 14.0263C50.8989 14.6235 51.7135 15.1772 51.4958 16.1348C51.3105 16.95 50.5762 17.4247 49.9486 17.8946C49.6103 18.148 49.2677 18.3981 48.9151 18.6307C48.9057 18.6375 48.8969 18.6449 48.8884 18.6527C48.8771 18.6601 48.8661 18.6681 48.8556 18.6768L40.3475 26.2153L39.1454 27.2803L33.1836 32.5791C33.0577 32.6908 33.0877 32.8787 33.1836 32.9945C34.3823 34.4206 35.5476 35.9436 36.3122 37.6545C36.5989 38.2961 36.8351 38.931 36.5728 39.6277ZM56.4232 33.8269C54.6585 33.9306 52.818 33.3894 51.1588 32.8466C47.7941 31.7461 44.5863 30.1507 41.5086 28.4141C40.9492 28.0989 40.3921 27.7783 39.8433 27.4443L48.0683 20.157L49.063 19.2756C50.4134 20.4529 51.7207 21.6828 53.0089 22.927C54.3595 24.2316 55.6807 25.5655 56.9723 26.9288C57.5788 27.5697 58.2107 28.1851 58.8244 28.8191C59.3619 29.3744 60.0095 29.9829 60.273 30.7283C60.8483 32.7932 57.9737 33.7361 56.4232 33.8269Z" fill="#F5B923"/>
<path d="M60.8553 30.6386C60.8524 30.6158 60.8471 30.5936 60.8392 30.572C60.8332 30.5494 60.8245 30.5277 60.8133 30.5072C60.2819 29.0927 58.8362 28.0188 57.8204 26.9686C56.457 25.5596 55.1049 24.1437 53.6981 22.7769C52.3438 21.4613 50.9675 20.1634 49.5453 18.9193C50.5952 18.2379 51.8684 17.4118 52.0899 16.1479C52.2764 15.0859 51.5838 14.4557 50.904 13.7952L51.4074 13.1751C51.995 14.2357 52.6946 15.2434 53.5758 16.0805C53.987 16.4714 54.9884 17.5405 55.5995 17.0586C56.0725 16.6857 55.7193 16.2161 55.4753 15.8293C55.0773 15.1958 54.6549 14.5777 54.2002 13.9831C53.6286 13.2365 53.0074 12.5225 52.2944 11.9075C52.4445 11.3671 52.3227 10.7761 51.7274 10.5457C51.2199 10.3491 50.7846 10.5773 50.3935 10.8689C49.6168 9.60176 48.7592 8.36747 47.7248 7.29645C47.3678 6.92698 46.3316 5.67518 45.7476 6.14728C45.1912 6.59707 45.8955 7.48131 46.1396 7.92151C46.5173 8.61016 46.9549 9.26427 47.4472 9.87628C48.0031 10.5625 48.6499 11.1892 49.3919 11.6728L49.0563 11.945C48.3961 11.265 47.7658 10.5725 46.7037 10.7588C45.4405 10.9804 44.6146 12.2526 43.9335 13.3025C42.3623 11.5028 40.7054 9.77198 39.0223 8.07855C37.4759 6.52466 35.8967 4.99162 34.3087 3.47585C33.344 2.55565 32.1283 1.46186 30.7126 2.10538C29.4206 2.69184 28.7733 4.28121 28.5401 5.58863C28.2876 7.0073 28.5362 8.46576 28.8688 9.85062C29.5954 12.8761 30.885 15.7712 32.2786 18.5422C33.12 20.2159 34.0148 21.8749 35.0011 23.4686L30.0365 29.0567C28.8024 28.0322 27.5063 27.0549 26.0794 26.3162C24.9958 25.7552 23.8563 25.2635 22.6844 25.8847C21.6296 26.4445 20.8214 27.7309 21.1362 28.9442C21.3249 29.6704 21.888 30.343 22.3327 30.9299C22.8486 31.6059 23.4008 32.2532 23.9869 32.8691C24.6918 33.6146 25.4328 34.3358 26.2165 35.0008C25.8766 35.5909 25.352 36.4068 25.8993 36.9541C26.4467 37.5016 27.2618 36.9782 27.8518 36.637C28.3773 37.2549 28.9395 37.8444 29.5161 38.4136C30.6819 39.5644 31.9853 40.7892 33.4578 41.5411C34.5973 42.1232 35.9327 41.5609 36.6778 40.6086C37.5265 39.524 37.3038 38.4028 36.7677 37.2431C36.0207 35.6281 34.9316 34.1802 33.7978 32.8154L39.3838 27.8507C41.4489 29.1298 43.6146 30.2704 45.81 31.3052C47.6799 32.1867 49.5978 32.9911 51.5788 33.5944C53.3514 34.1346 55.3262 34.6379 57.1859 34.3259C58.9587 34.0298 61.3995 32.7963 60.8553 30.6386ZM53.1894 13.6583C53.537 14.0673 53.8626 14.4938 54.1723 14.9316C54.3452 15.1754 54.5131 15.4223 54.6757 15.6723C54.7815 15.8339 55.1984 16.3182 55.1625 16.4971C55.1311 16.6538 55.195 16.5354 55.0689 16.5141C55.021 16.5061 54.9522 16.4392 54.9124 16.4129C54.7724 16.3193 54.6365 16.2203 54.5048 16.1155C54.1994 15.8708 53.912 15.6044 53.6447 15.3183C52.9029 14.5324 52.3134 13.6252 51.8035 12.6762L51.9952 12.4271C52.4212 12.8094 52.8202 13.2208 53.1894 13.6583ZM51.7008 11.8534L51.2432 12.4501L50.4872 13.3816C50.148 13.0426 49.8089 12.7035 49.4701 12.3643L50.1061 11.8488L50.522 11.5112C50.6441 11.4122 50.7642 11.2907 50.9004 11.2122C51.4261 10.9091 51.9976 11.1829 51.7008 11.8534ZM48.2418 9.90673C47.8321 9.45089 47.4611 8.96168 47.1326 8.44418C46.9432 8.14928 46.7653 7.8475 46.5987 7.53885C46.5544 7.45733 46.0766 6.58244 46.0521 6.61864C46.1034 6.5424 47.572 7.99224 47.6624 8.09317C48.5255 9.05869 49.2569 10.1333 49.9309 11.2377L49.8743 11.2837C49.2629 10.9114 48.7235 10.4364 48.2418 9.90673ZM30.0306 11.7651C29.1819 9.19128 28.2325 5.80226 30.0512 3.40944C30.4644 2.86566 31.0609 2.42953 31.7741 2.50434C32.5605 2.58682 33.2071 3.2464 33.7542 3.75926C35.2478 5.15898 36.7111 6.6057 38.1615 8.05097C40.0229 9.90505 41.8511 11.8059 43.5773 13.7885L36.2225 22.0909C35.9509 22.3974 35.6791 22.7039 35.4074 23.0106C33.2368 19.4912 31.3237 15.6867 30.0306 11.7651ZM36.5728 39.6277C36.2883 40.3835 35.5642 41.026 34.7633 41.1706C33.8548 41.3344 33.045 40.6299 32.3632 40.1229C31.6289 39.5765 30.9394 38.9692 30.2774 38.3369C29.5237 37.6159 28.7911 36.8602 28.1241 36.0591C28.0388 35.9565 27.8767 35.9568 27.7684 36.0131L27.239 36.2871C27.1177 36.3502 26.9971 36.4155 26.8748 36.4766C26.6627 36.5823 26.6579 36.6389 26.4361 36.4171C26.2204 36.2014 26.2582 36.2186 26.3592 36.0124C26.4167 35.8949 26.479 35.7799 26.5404 35.6638L26.8413 35.0847C26.8971 34.9774 26.8974 34.8136 26.7955 34.7287C25.9931 34.061 25.2372 33.329 24.518 32.5752C23.8858 31.9139 23.2783 31.2244 22.7321 30.4892C22.2249 29.8074 21.5205 28.9977 21.6842 28.0891C21.8281 27.2883 22.4715 26.5639 23.227 26.2793C23.9222 26.018 24.5597 26.2539 25.2012 26.5406C26.9118 27.3053 28.4348 28.472 29.861 29.6695C29.9768 29.7669 30.1636 29.7964 30.2763 29.6695C32.042 27.6822 33.8082 25.6948 35.5745 23.7072C38.0862 20.8716 40.5979 18.0355 43.1098 15.1989L44.1747 13.9969C44.1833 13.9864 44.1913 13.9754 44.1986 13.964C44.2066 13.9555 44.2139 13.9467 44.2207 13.9373C44.4365 13.6101 44.6679 13.2914 44.9021 12.9766C45.3847 12.3276 45.873 11.5479 46.7165 11.3563C47.6754 11.1386 48.2268 11.9533 48.8247 12.5506L50.302 14.0263C50.8989 14.6235 51.7135 15.1772 51.4958 16.1348C51.3105 16.95 50.5762 17.4247 49.9486 17.8946C49.6103 18.148 49.2677 18.3981 48.9151 18.6307C48.9057 18.6375 48.8969 18.6449 48.8884 18.6527C48.8771 18.6601 48.8661 18.6681 48.8556 18.6768L40.3475 26.2153L39.1454 27.2803L33.1836 32.5791C33.0577 32.6908 33.0877 32.8787 33.1836 32.9945C34.3823 34.4206 35.5476 35.9436 36.3122 37.6545C36.5989 38.2961 36.8351 38.931 36.5728 39.6277ZM56.4232 33.8269C54.6585 33.9306 52.818 33.3894 51.1588 32.8466C47.7941 31.7461 44.5863 30.1507 41.5086 28.4141C40.9492 28.0989 40.3921 27.7783 39.8433 27.4443L48.0683 20.157L49.063 19.2756C50.4134 20.4529 51.7207 21.6828 53.0089 22.927C54.3595 24.2316 55.6807 25.5655 56.9723 26.9288C57.5788 27.5697 58.2107 28.1851 58.8244 28.8191C59.3619 29.3744 60.0095 29.9829 60.273 30.7283C60.8483 32.7932 57.9737 33.7361 56.4232 33.8269Z" stroke="#F5B923" stroke-width="0.972326"/>
<path d="M43.8044 16.4954L47.1611 19.0339L47.4041 19.0279C47.3544 17.0398 45.8047 15.4912 43.8163 15.4411C43.6558 15.4372 43.517 15.4993 43.4221 15.608C43.3321 15.7112 43.2939 15.8414 43.2939 15.9616C43.294 16.082 43.3324 16.211 43.4192 16.3145C43.51 16.423 43.6443 16.4913 43.8044 16.4954Z" fill="#F5B923" stroke="#F5B923" stroke-width="0.486163"/>
</g>
</g>
</g>
<path d="M6.20781 59.5239C8.06981 59.5239 9.32981 60.6719 9.32981 62.3939C9.32981 63.6679 8.81181 64.5639 7.42581 64.9979V65.0399C8.60181 65.3899 8.93781 66.0899 9.03581 67.5879C9.16181 69.2259 9.30181 69.7299 9.51181 69.8699V69.9399H7.98581C7.74781 69.7439 7.71981 69.2679 7.60781 67.6019C7.50981 66.1319 6.89381 65.5999 5.53581 65.5999H2.76381V69.9399H1.33581V59.5239H6.20781ZM5.74581 64.4519C7.15981 64.4519 7.85981 63.7379 7.85981 62.6039C7.85981 61.3859 7.28581 60.7559 5.81581 60.7559H2.76381V64.4519H5.74581ZM15.8425 70.1639C12.6925 70.1639 10.7465 67.8399 10.7465 64.7319C10.7465 61.6099 12.6925 59.2999 15.8425 59.2999C18.9785 59.2999 20.9525 61.6099 20.9525 64.7319C20.9525 67.8399 18.9785 70.1639 15.8425 70.1639ZM15.8425 68.9039C18.2085 68.9039 19.4685 67.1119 19.4685 64.7319C19.4685 62.3379 18.2085 60.5319 15.8425 60.5319C13.4765 60.5319 12.2025 62.3379 12.2025 64.7319C12.2025 67.1119 13.4765 68.9039 15.8425 68.9039ZM25.2088 59.5239H26.8048L30.6408 69.9399H29.0728L28.0368 66.9019H23.9348L22.8708 69.9399H21.4008L25.2088 59.5239ZM24.3268 65.7819H27.6588L26.6648 62.8699C26.3148 61.8619 26.0348 60.6579 26.0348 60.6579H25.9928C25.9928 60.6579 25.6848 61.9039 25.3488 62.8699L24.3268 65.7819ZM35.8382 59.5239C38.9462 59.5239 40.4862 61.6519 40.4862 64.7739C40.4862 67.8819 38.8622 69.9399 35.7402 69.9399H31.9882V59.5239H35.8382ZM35.6842 68.6939C38.0362 68.6939 39.0022 67.1679 39.0022 64.7739C39.0022 62.3799 38.1342 60.7699 35.7682 60.7699H33.4302V68.6939H35.6842ZM42.2421 59.5239H44.0901L46.2601 65.1799C46.6801 66.3139 47.3101 68.4419 47.3101 68.4419H47.3381C47.3381 68.4419 47.9821 66.3279 48.4021 65.1799L50.5301 59.5239H52.4341V69.9399H51.0621V63.6399C51.0621 62.7159 51.1461 60.9659 51.1461 60.9659H51.1181C51.1181 60.9659 50.6981 62.5339 50.3901 63.3459L47.8561 69.9399H46.7361L44.2021 63.3459C43.9081 62.5339 43.4741 60.9659 43.4741 60.9659H43.4461C43.4461 60.9659 43.5301 62.7159 43.5301 63.6399V69.9399H42.2421V59.5239ZM57.5701 59.5239H59.1661L63.0021 69.9399H61.4341L60.3981 66.9019H56.2961L55.2321 69.9399H53.7621L57.5701 59.5239ZM56.6881 65.7819H60.0201L59.0261 62.8699C58.6761 61.8619 58.3961 60.6579 58.3961 60.6579H58.3541C58.3541 60.6579 58.0461 61.9039 57.7101 62.8699L56.6881 65.7819ZM68.7315 59.5239C69.8375 59.5239 70.6915 59.8879 71.2235 60.5319C71.6855 61.0779 71.9655 61.7499 71.9655 62.5759C71.9655 64.4939 70.8455 65.6559 68.5915 65.6559H65.7915V69.9399H64.3495V59.5239H68.7315ZM68.4515 64.4939C69.8655 64.4939 70.5375 63.7799 70.5375 62.6179C70.5375 61.3999 69.7955 60.7699 68.5075 60.7699H65.7915V64.4939H68.4515ZM77.2359 70.1499C74.3239 70.1499 72.8819 68.5539 72.7699 66.5659H74.1839C74.3519 68.1339 75.3879 69.0019 77.2779 69.0019C78.6639 69.0019 79.6719 68.3859 79.6719 67.1259C79.6719 65.7679 78.4679 65.4459 76.6479 65.0399C74.7859 64.6479 73.2039 64.1159 73.2039 62.1139C73.2039 60.3639 74.6739 59.3279 76.8159 59.3279C79.3779 59.3279 80.5259 60.6159 80.7779 62.3939H79.3919C79.2099 61.1339 78.2999 60.4479 76.8299 60.4479C75.4579 60.4479 74.5619 61.0079 74.5619 62.0439C74.5619 63.1779 75.6959 63.4999 77.2639 63.8219C79.2799 64.2279 81.1139 64.7459 81.1139 67.0699C81.1139 69.0439 79.4899 70.1499 77.2359 70.1499Z" fill="white"/>
<defs>
<clipPath id="clip0_7010_1625">
<rect width="41.81" height="42" fill="white" transform="translate(20.0947 0.939941)"/>
</clipPath>
<clipPath id="clip1_7010_1625">
<rect width="41.81" height="41.81" fill="white" transform="translate(20.0947 0.939941)"/>
</clipPath>
<clipPath id="clip2_7010_1625">
<rect width="41.81" height="41.81" fill="white" transform="translate(20.0947 0.939941)"/>
</clipPath>
</defs>
</svg>
