<svg width="79" height="75" viewBox="0 0 79 75" fill="none" xmlns="http://www.w3.org/2000/svg">
<g clip-path="url(#clip0_7010_1598)">
<g clip-path="url(#clip1_7010_1598)">
<g clip-path="url(#clip2_7010_1598)">
<path d="M39.3747 42.7499C34.1924 42.7436 29.1973 40.8127 25.3583 37.3318C21.5192 33.8509 19.1098 29.0682 18.5976 23.9114C18.0853 18.7546 19.5066 13.5914 22.5859 9.42326C25.6651 5.25514 30.1828 2.37928 35.2624 1.35358C40.3421 0.327867 45.6217 1.22541 50.077 3.87211C54.5323 6.51881 57.8458 10.726 59.3746 15.6775C60.9035 20.6291 60.5388 25.9719 58.3512 30.6698C56.1636 35.3676 52.3091 39.0854 47.5354 41.102C44.9538 42.195 42.178 42.7555 39.3747 42.7499ZM39.3747 3.03746C35.6657 3.03746 32.0399 4.13729 28.9561 6.19789C25.8722 8.25849 23.4686 11.1873 22.0492 14.6139C20.6298 18.0406 20.2584 21.8111 20.982 25.4488C21.7056 29.0865 23.4917 32.4281 26.1143 35.0506C28.737 37.6733 32.0784 39.4594 35.7161 40.1829C39.3538 40.9066 43.1245 40.5352 46.551 39.1158C49.9777 37.6964 52.9065 35.2928 54.9671 32.2089C57.0277 29.125 58.1275 25.4994 58.1275 21.7904C58.1229 16.8182 56.1457 12.051 52.6298 8.53517C49.114 5.01932 44.3468 3.04209 39.3747 3.03746Z" fill="#F5B923"/>
<path d="M39.3836 35.7816C35.9288 35.7773 32.5987 34.4901 30.0393 32.1694C27.4799 29.8488 25.8737 26.6604 25.5322 23.2225C25.1906 19.7847 26.1382 16.3425 28.191 13.5637C30.2439 10.785 33.2556 8.86777 36.6421 8.18396C40.0285 7.50016 43.5482 8.09851 46.5184 9.86299C49.4887 11.6275 51.6976 14.4322 52.7169 17.7332C53.7361 21.0342 53.4929 24.5962 52.0346 27.728C50.5762 30.8599 48.0065 33.3385 44.8241 34.6829C43.103 35.4115 41.2525 35.7853 39.3836 35.7816ZM39.3836 9.30656C36.911 9.30656 34.4938 10.0398 32.4379 11.4135C30.3819 12.7872 28.7795 14.7398 27.8332 17.0242C26.887 19.3087 26.6394 21.8224 27.1218 24.2475C27.6042 26.6727 28.7949 28.9002 30.5433 30.6487C32.2918 32.3972 34.5194 33.5878 36.9445 34.0703C39.3696 34.5526 41.8834 34.305 44.1678 33.3588C46.4522 32.4125 48.4048 30.8101 49.7786 28.7542C51.1523 26.6982 51.8854 24.2811 51.8854 21.8085C51.8824 18.4937 50.5642 15.3156 48.2203 12.9717C45.8764 10.6278 42.6983 9.30963 39.3836 9.30656Z" fill="#F5B923" stroke="#F5B923" stroke-width="1.16139"/>
<path d="M44.919 20.8786C45.6086 21.3383 45.6086 22.3516 44.919 22.8112L37.7216 27.6095C36.9499 28.124 35.916 27.5707 35.916 26.6431V17.0466C35.916 16.119 36.9499 15.5658 37.7216 16.0803L44.919 20.8786Z" fill="#F5B923"/>
</g>
</g>
</g>
<path d="M0.974656 59.5239H2.51466L4.79666 66.4679C5.04866 67.2239 5.41266 68.6939 5.41266 68.6939H5.44066C5.44066 68.6939 5.80466 67.1959 6.04266 66.4679L8.29666 59.5239H9.78066L6.14066 69.9399H4.57266L0.974656 59.5239ZM11.1255 59.5239H12.5535V69.9399H11.1255V59.5239ZM18.5843 59.5239C21.6923 59.5239 23.2323 61.6519 23.2323 64.7739C23.2323 67.8819 21.6083 69.9399 18.4863 69.9399H14.7343V59.5239H18.5843ZM18.4303 68.6939C20.7823 68.6939 21.7483 67.1679 21.7483 64.7739C21.7483 62.3799 20.8803 60.7699 18.5143 60.7699H16.1763V68.6939H18.4303ZM24.9882 59.5239H32.3942V60.7839H26.4162V63.9339H31.8202V65.1239H26.4162V68.6379H32.5482V69.9399H24.9882V59.5239ZM38.8113 70.1639C35.6613 70.1639 33.7153 67.8399 33.7153 64.7319C33.7153 61.6099 35.6613 59.2999 38.8113 59.2999C41.9473 59.2999 43.9213 61.6099 43.9213 64.7319C43.9213 67.8399 41.9473 70.1639 38.8113 70.1639ZM38.8113 68.9039C41.1773 68.9039 42.4373 67.1119 42.4373 64.7319C42.4373 62.3379 41.1773 60.5319 38.8113 60.5319C36.4453 60.5319 35.1713 62.3379 35.1713 64.7319C35.1713 67.1119 36.4453 68.9039 38.8113 68.9039ZM45.2677 65.3619H49.1597V66.5379H45.2677V65.3619ZM50.91 59.5239H52.408L56.678 66.0479C57.182 66.8179 57.84 68.1199 57.84 68.1199H57.882C57.882 68.1199 57.784 66.7619 57.784 65.8939V59.5239H59.128V69.9399H57.644L53.388 63.4159C52.884 62.6319 52.198 61.3579 52.198 61.3579H52.17C52.17 61.3579 52.254 62.7159 52.254 63.5559V69.9399H50.91V59.5239ZM61.287 59.5239H68.413V60.7839H62.715V63.9059H67.461V65.1239H62.715V69.9399H61.287V59.5239ZM69.352 59.5239H77.64V60.7839H74.21V69.9399H72.768V60.7839H69.352V59.5239Z" fill="white"/>
<defs>
<clipPath id="clip0_7010_1598">
<rect width="41.81" height="42" fill="white" transform="translate(18.4951 0.939941)"/>
</clipPath>
<clipPath id="clip1_7010_1598">
<rect width="41.81" height="41.81" fill="white" transform="translate(18.4951 0.939941)"/>
</clipPath>
<clipPath id="clip2_7010_1598">
<rect width="41.81" height="41.81" fill="white" transform="translate(18.4951 0.939941)"/>
</clipPath>
</defs>
</svg>
